<svg width="400" height="364" viewBox="0 0 400 364" fill="none" xmlns="http://www.w3.org/2000/svg">
<path fill-rule="evenodd" clip-rule="evenodd" d="M105.616 37.1549C108.195 32.725 112.935 30 118.061 30H268.285C271.061 30 272.793 33.0103 271.396 35.4103L192.106 171.6H33.6054C30.8283 171.6 29.097 168.589 30.4943 166.189L105.616 37.1549ZM61.0095 149.725C60.3916 150.786 61.5774 151.981 62.6429 151.37L239.221 50.2322C240.288 49.621 239.854 47.9909 238.624 47.9909H123.708C121.573 47.9909 119.598 49.126 118.524 50.9713L61.0095 149.725Z" fill="#07020D"/>
<path fill-rule="evenodd" clip-rule="evenodd" d="M292.667 43.847C291.284 41.4346 287.804 41.4349 286.421 43.8475L207.344 181.8L286.42 319.75C287.803 322.163 291.284 322.163 292.667 319.75L367.64 188.905C370.182 184.469 370.181 179.018 367.638 174.582L292.667 43.847ZM291.785 284.871C291.173 285.938 289.544 285.504 289.544 284.275V79.3253C289.544 78.0956 291.173 77.6617 291.785 78.7286L349.159 178.816C350.218 180.664 350.218 182.936 349.159 184.784L291.785 284.871Z" fill="#07020D"/>
<path d="M271.393 328.189C272.79 330.589 271.059 333.6 268.282 333.6H109.785L109.717 333.488L30.4943 197.411C29.0971 195.011 30.8284 192 33.6055 192H192.079C192.087 192 192.094 192.003 192.1 192.009L192.102 192.011L192.104 192.015L271.393 328.189Z" fill="#07020D"/>
</svg>
