<svg width="401" height="389" viewBox="0 0 401 389" fill="none" xmlns="http://www.w3.org/2000/svg">
<rect x="1" y="0.696289" width="399.546" height="387.6" rx="56" fill="#07020D"/>
<path d="M93.6531 38.3042L93.6531 38.3042L18.5311 167.338C13.8063 175.454 16.0055 184.922 22.1119 190.496C16.0055 196.071 13.8064 205.539 18.5312 213.655L97.7543 349.731L97.8183 349.841L97.8841 349.95L97.9521 350.062L102.33 357.296H110.785H269.282C277.749 357.296 284.335 351.878 286.827 344.889C294.228 346.37 302.401 343.375 306.682 335.904L381.655 205.059L368.64 197.601L381.655 205.059C386.845 196.002 386.843 184.872 381.65 175.817L306.68 45.0814C302.398 37.6141 294.228 34.621 286.829 36.1017C284.336 29.113 277.751 23.6963 269.285 23.6963H119.061C108.595 23.6963 98.9187 29.2597 93.6531 38.3042ZM280.655 60.0051L284.363 57.8788L280.655 60.0052L280.663 60.0182C280.66 60.0139 280.658 60.0095 280.655 60.0051ZM305.544 241.148V139.844L334.579 190.496L305.544 241.148ZM129.882 71.6872H187.765L100.908 121.436L129.882 71.6872Z" fill="url(#paint0_linear_994_9236)" stroke="#07020D" stroke-width="30"/>
<defs>
<linearGradient id="paint0_linear_994_9236" x1="200.773" y1="342.296" x2="200.773" y2="92.9324" gradientUnits="userSpaceOnUse">
<stop stop-color="#EBEBEB"/>
<stop offset="1" stop-color="#F2F2F5"/>
</linearGradient>
</defs>
</svg>
