<svg width="1441" height="901" viewBox="0 0 1441 901" fill="none" xmlns="http://www.w3.org/2000/svg">
<g opacity="0.14">
<path d="M1288.75 271.333L1289.18 271.583L1289.33 271.333L1289.18 271.084L1288.75 271.333ZM1236.97 361.213V361.713H1237.26L1237.4 361.463L1236.97 361.213ZM1133.41 361.213L1132.98 361.463L1133.13 361.713H1133.41V361.213ZM1081.64 271.333L1081.2 271.084L1081.06 271.333L1081.2 271.583L1081.64 271.333ZM1133.41 181.453V180.953H1133.13L1132.98 181.204L1133.41 181.453ZM1236.97 181.453L1237.4 181.204L1237.26 180.953H1236.97V181.453ZM1288.32 271.084L1236.54 360.964L1237.4 361.463L1289.18 271.583L1288.32 271.084ZM1236.97 360.713H1133.41V361.713H1236.97V360.713ZM1133.85 360.964L1082.07 271.084L1081.2 271.583L1132.98 361.463L1133.85 360.964ZM1082.07 271.583L1133.85 181.703L1132.98 181.204L1081.2 271.084L1082.07 271.583ZM1133.41 181.953H1236.97V180.953H1133.41V181.953ZM1236.54 181.703L1288.32 271.583L1289.18 271.084L1237.4 181.204L1236.54 181.703Z" fill="#594956"/>
<path d="M1288.75 630.852L1289.18 631.101L1289.33 630.852L1289.18 630.602L1288.75 630.852ZM1236.97 720.732V721.232H1237.26L1237.4 720.981L1236.97 720.732ZM1133.41 720.732L1132.98 720.981L1133.13 721.232H1133.41V720.732ZM1081.64 630.852L1081.2 630.602L1081.06 630.852L1081.2 631.101L1081.64 630.852ZM1133.41 540.972V540.472H1133.13L1132.98 540.722L1133.41 540.972ZM1236.97 540.972L1237.4 540.722L1237.26 540.472H1236.97V540.972ZM1288.32 630.602L1236.54 720.482L1237.4 720.981L1289.18 631.101L1288.32 630.602ZM1236.97 720.232H1133.41V721.232H1236.97V720.232ZM1133.85 720.482L1082.07 630.602L1081.2 631.101L1132.98 720.981L1133.85 720.482ZM1082.07 631.101L1133.85 541.221L1132.98 540.722L1081.2 630.602L1082.07 631.101ZM1133.41 541.472H1236.97V540.472H1133.41V541.472ZM1236.54 541.221L1288.32 631.101L1289.18 630.602L1237.4 540.722L1236.54 541.221Z" fill="#594956"/>
<path d="M1288.75 451.093L1289.18 451.343L1289.33 451.093L1289.18 450.843L1288.75 451.093ZM1236.97 540.973V541.473H1237.26L1237.4 541.223L1236.97 540.973ZM1133.41 540.973L1132.98 541.223L1133.13 541.473H1133.41V540.973ZM1081.64 451.093L1081.2 450.843L1081.06 451.093L1081.2 451.343L1081.64 451.093ZM1133.41 361.213V360.713H1133.13L1132.98 360.963L1133.41 361.213ZM1236.97 361.213L1237.4 360.963L1237.26 360.713H1236.97V361.213ZM1288.32 450.843L1236.54 540.723L1237.4 541.223L1289.18 451.343L1288.32 450.843ZM1236.97 540.473H1133.41V541.473H1236.97V540.473ZM1133.85 540.723L1082.07 450.843L1081.2 451.343L1132.98 541.223L1133.85 540.723ZM1082.07 451.343L1133.85 361.462L1132.98 360.963L1081.2 450.843L1082.07 451.343ZM1133.41 361.713H1236.97V360.713H1133.41V361.713ZM1236.54 361.462L1288.32 451.343L1289.18 450.843L1237.4 360.963L1236.54 361.462Z" fill="#594956"/>
<path d="M1288.75 91.5734L1289.18 91.823L1289.33 91.5734L1289.18 91.3238L1288.75 91.5734ZM1236.97 181.453V181.953H1237.26L1237.4 181.703L1236.97 181.453ZM1133.41 181.453L1132.98 181.703L1133.13 181.953H1133.41V181.453ZM1081.64 91.5734L1081.2 91.3238L1081.06 91.5734L1081.2 91.823L1081.64 91.5734ZM1133.41 1.69336V1.19336H1133.13L1132.98 1.44377L1133.41 1.69336ZM1236.97 1.69336L1237.4 1.44377L1237.26 1.19336H1236.97V1.69336ZM1288.32 91.3238L1236.54 181.204L1237.4 181.703L1289.18 91.823L1288.32 91.3238ZM1236.97 180.953H1133.41V181.953H1236.97V180.953ZM1133.85 181.204L1082.07 91.3238L1081.2 91.823L1132.98 181.703L1133.85 181.204ZM1082.07 91.823L1133.85 1.94295L1132.98 1.44377L1081.2 91.3238L1082.07 91.823ZM1133.41 2.19336H1236.97V1.19336H1133.41V2.19336ZM1236.54 1.94295L1288.32 91.823L1289.18 91.3238L1237.4 1.44377L1236.54 1.94295Z" fill="#594956"/>
<path d="M1288.75 810.613L1289.18 810.863L1289.33 810.613L1289.18 810.364L1288.75 810.613ZM1236.97 900.493V900.993H1237.26L1237.4 900.743L1236.97 900.493ZM1133.41 900.493L1132.98 900.743L1133.13 900.993H1133.41V900.493ZM1081.64 810.613L1081.2 810.364L1081.06 810.613L1081.2 810.863L1081.64 810.613ZM1133.41 720.733V720.233H1133.13L1132.98 720.484L1133.41 720.733ZM1236.97 720.733L1237.4 720.484L1237.26 720.233H1236.97V720.733ZM1288.32 810.364L1236.54 900.244L1237.4 900.743L1289.18 810.863L1288.32 810.364ZM1236.97 899.993H1133.41V900.993H1236.97V899.993ZM1133.85 900.244L1082.07 810.364L1081.2 810.863L1132.98 900.743L1133.85 900.244ZM1082.07 810.863L1133.85 720.983L1132.98 720.484L1081.2 810.364L1082.07 810.863ZM1133.41 721.233H1236.97V720.233H1133.41V721.233ZM1236.54 720.983L1288.32 810.863L1289.18 810.364L1237.4 720.484L1236.54 720.983Z" fill="#594956"/>
<path d="M563.848 271.333L564.281 271.583L564.425 271.333L564.281 271.084L563.848 271.333ZM512.069 361.213V361.713H512.358L512.503 361.463L512.069 361.213ZM408.512 361.213L408.079 361.463L408.223 361.713H408.512V361.213ZM356.733 271.333L356.3 271.084L356.156 271.333L356.3 271.583L356.733 271.333ZM408.512 181.453V180.953H408.223L408.079 181.204L408.512 181.453ZM512.069 181.453L512.503 181.204L512.358 180.953H512.069V181.453ZM563.415 271.084L511.636 360.964L512.503 361.463L564.281 271.583L563.415 271.084ZM512.069 360.713H408.512V361.713H512.069V360.713ZM408.945 360.964L357.167 271.084L356.3 271.583L408.079 361.463L408.945 360.964ZM357.167 271.583L408.945 181.703L408.079 181.204L356.3 271.084L357.167 271.583ZM408.512 181.953H512.069V180.953H408.512V181.953ZM511.636 181.703L563.415 271.583L564.281 271.084L512.503 181.204L511.636 181.703Z" fill="#594956"/>
<path d="M563.848 630.852L564.281 631.101L564.425 630.852L564.281 630.602L563.848 630.852ZM512.069 720.732V721.232H512.358L512.503 720.981L512.069 720.732ZM408.512 720.732L408.079 720.981L408.223 721.232H408.512V720.732ZM356.733 630.852L356.3 630.602L356.156 630.852L356.3 631.101L356.733 630.852ZM408.512 540.972V540.472H408.223L408.079 540.722L408.512 540.972ZM512.069 540.972L512.503 540.722L512.358 540.472H512.069V540.972ZM563.415 630.602L511.636 720.482L512.503 720.981L564.281 631.101L563.415 630.602ZM512.069 720.232H408.512V721.232H512.069V720.232ZM408.945 720.482L357.167 630.602L356.3 631.101L408.079 720.981L408.945 720.482ZM357.167 631.101L408.945 541.221L408.079 540.722L356.3 630.602L357.167 631.101ZM408.512 541.472H512.069V540.472H408.512V541.472ZM511.636 541.221L563.415 631.101L564.281 630.602L512.503 540.722L511.636 541.221Z" fill="#594956"/>
<path d="M563.848 451.093L564.281 451.343L564.425 451.093L564.281 450.843L563.848 451.093ZM512.069 540.973V541.473H512.358L512.503 541.223L512.069 540.973ZM408.512 540.973L408.079 541.223L408.223 541.473H408.512V540.973ZM356.733 451.093L356.3 450.843L356.156 451.093L356.3 451.343L356.733 451.093ZM408.512 361.213V360.713H408.223L408.079 360.963L408.512 361.213ZM512.069 361.213L512.503 360.963L512.358 360.713H512.069V361.213ZM563.415 450.843L511.636 540.723L512.503 541.223L564.281 451.343L563.415 450.843ZM512.069 540.473H408.512V541.473H512.069V540.473ZM408.945 540.723L357.167 450.843L356.3 451.343L408.079 541.223L408.945 540.723ZM357.167 451.343L408.945 361.462L408.079 360.963L356.3 450.843L357.167 451.343ZM408.512 361.713H512.069V360.713H408.512V361.713ZM511.636 361.462L563.415 451.343L564.281 450.843L512.503 360.963L511.636 361.462Z" fill="#594956"/>
<path d="M563.848 91.5734L564.281 91.823L564.425 91.5734L564.281 91.3238L563.848 91.5734ZM512.069 181.453V181.953H512.358L512.503 181.703L512.069 181.453ZM408.512 181.453L408.079 181.703L408.223 181.953H408.512V181.453ZM356.733 91.5734L356.3 91.3238L356.156 91.5734L356.3 91.823L356.733 91.5734ZM408.512 1.69336V1.19336H408.223L408.079 1.44377L408.512 1.69336ZM512.069 1.69336L512.503 1.44377L512.358 1.19336H512.069V1.69336ZM563.415 91.3238L511.636 181.204L512.503 181.703L564.281 91.823L563.415 91.3238ZM512.069 180.953H408.512V181.953H512.069V180.953ZM408.945 181.204L357.167 91.3238L356.3 91.823L408.079 181.703L408.945 181.204ZM357.167 91.823L408.945 1.94295L408.079 1.44377L356.3 91.3238L357.167 91.823ZM408.512 2.19336H512.069V1.19336H408.512V2.19336ZM511.636 1.94295L563.415 91.823L564.281 91.3238L512.503 1.44377L511.636 1.94295Z" fill="#594956"/>
<path d="M563.848 810.613L564.281 810.863L564.425 810.613L564.281 810.364L563.848 810.613ZM512.069 900.493V900.993H512.358L512.503 900.743L512.069 900.493ZM408.512 900.493L408.079 900.743L408.223 900.993H408.512V900.493ZM356.733 810.613L356.3 810.364L356.156 810.613L356.3 810.863L356.733 810.613ZM408.512 720.733V720.233H408.223L408.079 720.484L408.512 720.733ZM512.069 720.733L512.503 720.484L512.358 720.233H512.069V720.733ZM563.415 810.364L511.636 900.244L512.503 900.743L564.281 810.863L563.415 810.364ZM512.069 899.993H408.512V900.993H512.069V899.993ZM408.945 900.244L357.167 810.364L356.3 810.863L408.079 900.743L408.945 900.244ZM357.167 810.863L408.945 720.983L408.079 720.484L356.3 810.364L357.167 810.863ZM408.512 721.233H512.069V720.233H408.512V721.233ZM511.636 720.983L563.415 810.863L564.281 810.364L512.503 720.484L511.636 720.983Z" fill="#594956"/>
<path d="M1081.64 271.333L1082.07 271.583L1082.21 271.333L1082.07 271.084L1081.64 271.333ZM1029.86 361.213V361.713H1030.15L1030.29 361.463L1029.86 361.213ZM926.299 361.213L925.866 361.463L926.01 361.713H926.299V361.213ZM874.521 271.333L874.088 271.084L873.944 271.333L874.088 271.583L874.521 271.333ZM926.299 181.453V180.953H926.01L925.866 181.204L926.299 181.453ZM1029.86 181.453L1030.29 181.204L1030.15 180.953H1029.86V181.453ZM1081.2 271.084L1029.42 360.964L1030.29 361.463L1082.07 271.583L1081.2 271.084ZM1029.86 360.713H926.299V361.713H1029.86V360.713ZM926.733 360.964L874.954 271.084L874.088 271.583L925.866 361.463L926.733 360.964ZM874.954 271.583L926.733 181.703L925.866 181.204L874.088 271.084L874.954 271.583ZM926.299 181.953H1029.86V180.953H926.299V181.953ZM1029.42 181.703L1081.2 271.583L1082.07 271.084L1030.29 181.204L1029.42 181.703Z" fill="#594956"/>
<path d="M1081.64 630.852L1082.07 631.101L1082.21 630.852L1082.07 630.602L1081.64 630.852ZM1029.86 720.732V721.232H1030.15L1030.29 720.981L1029.86 720.732ZM926.299 720.732L925.866 720.981L926.01 721.232H926.299V720.732ZM874.521 630.852L874.088 630.602L873.944 630.852L874.088 631.101L874.521 630.852ZM926.299 540.972V540.472H926.01L925.866 540.722L926.299 540.972ZM1029.86 540.972L1030.29 540.722L1030.15 540.472H1029.86V540.972ZM1081.2 630.602L1029.42 720.482L1030.29 720.981L1082.07 631.101L1081.2 630.602ZM1029.86 720.232H926.299V721.232H1029.86V720.232ZM926.733 720.482L874.954 630.602L874.088 631.101L925.866 720.981L926.733 720.482ZM874.954 631.101L926.733 541.221L925.866 540.722L874.088 630.602L874.954 631.101ZM926.299 541.472H1029.86V540.472H926.299V541.472ZM1029.42 541.221L1081.2 631.101L1082.07 630.602L1030.29 540.722L1029.42 541.221Z" fill="#594956"/>
<path d="M1081.64 451.093L1082.07 451.343L1082.21 451.093L1082.07 450.843L1081.64 451.093ZM1029.86 540.973V541.473H1030.15L1030.29 541.223L1029.86 540.973ZM926.299 540.973L925.866 541.223L926.01 541.473H926.299V540.973ZM874.521 451.093L874.088 450.843L873.944 451.093L874.088 451.343L874.521 451.093ZM926.299 361.213V360.713H926.01L925.866 360.963L926.299 361.213ZM1029.86 361.213L1030.29 360.963L1030.15 360.713H1029.86V361.213ZM1081.2 450.843L1029.42 540.723L1030.29 541.223L1082.07 451.343L1081.2 450.843ZM1029.86 540.473H926.299V541.473H1029.86V540.473ZM926.733 540.723L874.954 450.843L874.088 451.343L925.866 541.223L926.733 540.723ZM874.954 451.343L926.733 361.462L925.866 360.963L874.088 450.843L874.954 451.343ZM926.299 361.713H1029.86V360.713H926.299V361.713ZM1029.42 361.462L1081.2 451.343L1082.07 450.843L1030.29 360.963L1029.42 361.462Z" fill="#594956"/>
<path d="M1081.64 91.5734L1082.07 91.823L1082.21 91.5734L1082.07 91.3238L1081.64 91.5734ZM1029.86 181.453V181.953H1030.15L1030.29 181.703L1029.86 181.453ZM926.299 181.453L925.866 181.703L926.01 181.953H926.299V181.453ZM874.521 91.5734L874.088 91.3238L873.944 91.5734L874.088 91.823L874.521 91.5734ZM926.299 1.69336V1.19336H926.01L925.866 1.44377L926.299 1.69336ZM1029.86 1.69336L1030.29 1.44377L1030.15 1.19336H1029.86V1.69336ZM1081.2 91.3238L1029.42 181.204L1030.29 181.703L1082.07 91.823L1081.2 91.3238ZM1029.86 180.953H926.299V181.953H1029.86V180.953ZM926.733 181.204L874.954 91.3238L874.088 91.823L925.866 181.703L926.733 181.204ZM874.954 91.823L926.733 1.94295L925.866 1.44377L874.088 91.3238L874.954 91.823ZM926.299 2.19336H1029.86V1.19336H926.299V2.19336ZM1029.42 1.94295L1081.2 91.823L1082.07 91.3238L1030.29 1.44377L1029.42 1.94295Z" fill="#594956"/>
<path d="M1081.64 810.613L1082.07 810.863L1082.21 810.613L1082.07 810.364L1081.64 810.613ZM1029.86 900.493V900.993H1030.15L1030.29 900.743L1029.86 900.493ZM926.299 900.493L925.866 900.743L926.01 900.993H926.299V900.493ZM874.521 810.613L874.088 810.364L873.944 810.613L874.088 810.863L874.521 810.613ZM926.299 720.733V720.233H926.01L925.866 720.484L926.299 720.733ZM1029.86 720.733L1030.29 720.484L1030.15 720.233H1029.86V720.733ZM1081.2 810.364L1029.42 900.244L1030.29 900.743L1082.07 810.863L1081.2 810.364ZM1029.86 899.993H926.299V900.993H1029.86V899.993ZM926.733 900.244L874.954 810.364L874.088 810.863L925.866 900.743L926.733 900.244ZM874.954 810.863L926.733 720.983L925.866 720.484L874.088 810.364L874.954 810.863ZM926.299 721.233H1029.86V720.233H926.299V721.233ZM1029.42 720.983L1081.2 810.863L1082.07 810.364L1030.29 720.484L1029.42 720.983Z" fill="#594956"/>
<path d="M356.733 271.333L357.167 271.583L357.31 271.333L357.167 271.084L356.733 271.333ZM304.955 361.213V361.713H305.244L305.388 361.463L304.955 361.213ZM201.397 361.213L200.964 361.463L201.108 361.713H201.397V361.213ZM149.619 271.333L149.185 271.084L149.041 271.333L149.185 271.583L149.619 271.333ZM201.397 181.453V180.953H201.108L200.964 181.204L201.397 181.453ZM304.955 181.453L305.388 181.204L305.244 180.953H304.955V181.453ZM356.3 271.084L304.521 360.964L305.388 361.463L357.167 271.583L356.3 271.084ZM304.955 360.713H201.397V361.713H304.955V360.713ZM201.83 360.964L150.052 271.084L149.185 271.583L200.964 361.463L201.83 360.964ZM150.052 271.583L201.83 181.703L200.964 181.204L149.185 271.084L150.052 271.583ZM201.397 181.953H304.955V180.953H201.397V181.953ZM304.521 181.703L356.3 271.583L357.167 271.084L305.388 181.204L304.521 181.703Z" fill="#594956"/>
<path d="M356.733 630.852L357.167 631.101L357.31 630.852L357.167 630.602L356.733 630.852ZM304.955 720.732V721.232H305.244L305.388 720.981L304.955 720.732ZM201.397 720.732L200.964 720.981L201.108 721.232H201.397V720.732ZM149.619 630.852L149.185 630.602L149.041 630.852L149.185 631.101L149.619 630.852ZM201.397 540.972V540.472H201.108L200.964 540.722L201.397 540.972ZM304.955 540.972L305.388 540.722L305.244 540.472H304.955V540.972ZM356.3 630.602L304.521 720.482L305.388 720.981L357.167 631.101L356.3 630.602ZM304.955 720.232H201.397V721.232H304.955V720.232ZM201.83 720.482L150.052 630.602L149.185 631.101L200.964 720.981L201.83 720.482ZM150.052 631.101L201.83 541.221L200.964 540.722L149.185 630.602L150.052 631.101ZM201.397 541.472H304.955V540.472H201.397V541.472ZM304.521 541.221L356.3 631.101L357.167 630.602L305.388 540.722L304.521 541.221Z" fill="#594956"/>
<path d="M356.733 451.093L357.167 451.343L357.31 451.093L357.167 450.843L356.733 451.093ZM304.955 540.973V541.473H305.244L305.388 541.223L304.955 540.973ZM201.397 540.973L200.964 541.223L201.108 541.473H201.397V540.973ZM149.619 451.093L149.185 450.843L149.041 451.093L149.185 451.343L149.619 451.093ZM201.397 361.213V360.713H201.108L200.964 360.963L201.397 361.213ZM304.955 361.213L305.388 360.963L305.244 360.713H304.955V361.213ZM356.3 450.843L304.521 540.723L305.388 541.223L357.167 451.343L356.3 450.843ZM304.955 540.473H201.397V541.473H304.955V540.473ZM201.83 540.723L150.052 450.843L149.185 451.343L200.964 541.223L201.83 540.723ZM150.052 451.343L201.83 361.462L200.964 360.963L149.185 450.843L150.052 451.343ZM201.397 361.713H304.955V360.713H201.397V361.713ZM304.521 361.462L356.3 451.343L357.167 450.843L305.388 360.963L304.521 361.462Z" fill="#594956"/>
<path d="M356.733 91.5734L357.167 91.823L357.31 91.5734L357.167 91.3238L356.733 91.5734ZM304.955 181.453V181.953H305.244L305.388 181.703L304.955 181.453ZM201.397 181.453L200.964 181.703L201.108 181.953H201.397V181.453ZM149.619 91.5734L149.185 91.3238L149.041 91.5734L149.185 91.823L149.619 91.5734ZM201.397 1.69336V1.19336H201.108L200.964 1.44377L201.397 1.69336ZM304.955 1.69336L305.388 1.44377L305.244 1.19336H304.955V1.69336ZM356.3 91.3238L304.521 181.204L305.388 181.703L357.167 91.823L356.3 91.3238ZM304.955 180.953H201.397V181.953H304.955V180.953ZM201.83 181.204L150.052 91.3238L149.185 91.823L200.964 181.703L201.83 181.204ZM150.052 91.823L201.83 1.94295L200.964 1.44377L149.185 91.3238L150.052 91.823ZM201.397 2.19336H304.955V1.19336H201.397V2.19336ZM304.521 1.94295L356.3 91.823L357.167 91.3238L305.388 1.44377L304.521 1.94295Z" fill="#594956"/>
<path d="M356.733 810.613L357.167 810.863L357.31 810.613L357.167 810.364L356.733 810.613ZM304.955 900.493V900.993H305.244L305.388 900.743L304.955 900.493ZM201.397 900.493L200.964 900.743L201.108 900.993H201.397V900.493ZM149.619 810.613L149.185 810.364L149.041 810.613L149.185 810.863L149.619 810.613ZM201.397 720.733V720.233H201.108L200.964 720.484L201.397 720.733ZM304.955 720.733L305.388 720.484L305.244 720.233H304.955V720.733ZM356.3 810.364L304.521 900.244L305.388 900.743L357.167 810.863L356.3 810.364ZM304.955 899.993H201.397V900.993H304.955V899.993ZM201.83 900.244L150.052 810.364L149.185 810.863L200.964 900.743L201.83 900.244ZM150.052 810.863L201.83 720.983L200.964 720.484L149.185 810.364L150.052 810.863ZM201.397 721.233H304.955V720.233H201.397V721.233ZM304.521 720.983L356.3 810.863L357.167 810.364L305.388 720.484L304.521 720.983Z" fill="#594956"/>
<path d="M46.0587 271.333L46.4919 271.583L46.6357 271.333L46.4919 271.084L46.0587 271.333ZM-5.72003 361.213V361.713H-5.43105L-5.28679 361.463L-5.72003 361.213ZM-109.277 361.213L-109.711 361.463L-109.566 361.713H-109.277V361.213ZM-161.056 271.333L-161.489 271.084L-161.633 271.333L-161.489 271.583L-161.056 271.333ZM-109.277 181.453V180.953H-109.566L-109.711 181.204L-109.277 181.453ZM-5.72003 181.453L-5.28677 181.204L-5.43105 180.953H-5.72003V181.453ZM45.6254 271.084L-6.15327 360.964L-5.28679 361.463L46.4919 271.583L45.6254 271.084ZM-5.72003 360.713H-109.277V361.713H-5.72003V360.713ZM-108.844 360.964L-160.623 271.084L-161.489 271.583L-109.711 361.463L-108.844 360.964ZM-160.623 271.583L-108.844 181.703L-109.711 181.204L-161.489 271.084L-160.623 271.583ZM-109.277 181.953H-5.72003V180.953H-109.277V181.953ZM-6.15327 181.703L45.6254 271.583L46.4919 271.084L-5.28677 181.204L-6.15327 181.703Z" fill="#594956"/>
<path d="M1495.87 271.333L1496.3 271.583L1496.44 271.333L1496.3 271.084L1495.87 271.333ZM1444.09 361.213V361.713H1444.38L1444.52 361.463L1444.09 361.213ZM1340.53 361.213L1340.1 361.463L1340.24 361.713H1340.53V361.213ZM1288.75 271.333L1288.32 271.084L1288.18 271.333L1288.32 271.583L1288.75 271.333ZM1340.53 181.453V180.953H1340.24L1340.1 181.204L1340.53 181.453ZM1444.09 181.453L1444.52 181.204L1444.38 180.953H1444.09V181.453ZM1495.43 271.084L1443.66 360.964L1444.52 361.463L1496.3 271.583L1495.43 271.084ZM1444.09 360.713H1340.53V361.713H1444.09V360.713ZM1340.96 360.964L1289.19 271.084L1288.32 271.583L1340.1 361.463L1340.96 360.964ZM1289.19 271.583L1340.96 181.703L1340.1 181.204L1288.32 271.084L1289.19 271.583ZM1340.53 181.953H1444.09V180.953H1340.53V181.953ZM1443.66 181.703L1495.43 271.583L1496.3 271.084L1444.52 181.204L1443.66 181.703Z" fill="#594956"/>
<path d="M46.0587 630.852L46.4919 631.101L46.6357 630.852L46.4919 630.602L46.0587 630.852ZM-5.72003 720.732V721.232H-5.43105L-5.28679 720.981L-5.72003 720.732ZM-109.277 720.732L-109.711 720.981L-109.566 721.232H-109.277V720.732ZM-161.056 630.852L-161.489 630.602L-161.633 630.852L-161.489 631.101L-161.056 630.852ZM-109.277 540.972V540.472H-109.566L-109.711 540.722L-109.277 540.972ZM-5.72003 540.972L-5.28677 540.722L-5.43105 540.472H-5.72003V540.972ZM45.6254 630.602L-6.15327 720.482L-5.28679 720.981L46.4919 631.101L45.6254 630.602ZM-5.72003 720.232H-109.277V721.232H-5.72003V720.232ZM-108.844 720.482L-160.623 630.602L-161.489 631.101L-109.711 720.981L-108.844 720.482ZM-160.623 631.101L-108.844 541.221L-109.711 540.722L-161.489 630.602L-160.623 631.101ZM-109.277 541.472H-5.72003V540.472H-109.277V541.472ZM-6.15327 541.221L45.6254 631.101L46.4919 630.602L-5.28677 540.722L-6.15327 541.221Z" fill="#594956"/>
<path d="M1495.87 630.852L1496.3 631.101L1496.44 630.852L1496.3 630.602L1495.87 630.852ZM1444.09 720.732V721.232H1444.38L1444.52 720.981L1444.09 720.732ZM1340.53 720.732L1340.1 720.981L1340.24 721.232H1340.53V720.732ZM1288.75 630.852L1288.32 630.602L1288.18 630.852L1288.32 631.101L1288.75 630.852ZM1340.53 540.972V540.472H1340.24L1340.1 540.722L1340.53 540.972ZM1444.09 540.972L1444.52 540.722L1444.38 540.472H1444.09V540.972ZM1495.43 630.602L1443.66 720.482L1444.52 720.981L1496.3 631.101L1495.43 630.602ZM1444.09 720.232H1340.53V721.232H1444.09V720.232ZM1340.96 720.482L1289.19 630.602L1288.32 631.101L1340.1 720.981L1340.96 720.482ZM1289.19 631.101L1340.96 541.221L1340.1 540.722L1288.32 630.602L1289.19 631.101ZM1340.53 541.472H1444.09V540.472H1340.53V541.472ZM1443.66 541.221L1495.43 631.101L1496.3 630.602L1444.52 540.722L1443.66 541.221Z" fill="#594956"/>
<path d="M46.0587 451.093L46.4919 451.343L46.6357 451.093L46.4919 450.843L46.0587 451.093ZM-5.72003 540.973V541.473H-5.43105L-5.28679 541.223L-5.72003 540.973ZM-109.277 540.973L-109.711 541.223L-109.566 541.473H-109.277V540.973ZM-161.056 451.093L-161.489 450.843L-161.633 451.093L-161.489 451.343L-161.056 451.093ZM-109.277 361.213V360.713H-109.566L-109.711 360.963L-109.277 361.213ZM-5.72003 361.213L-5.28677 360.963L-5.43105 360.713H-5.72003V361.213ZM45.6254 450.843L-6.15327 540.723L-5.28679 541.223L46.4919 451.343L45.6254 450.843ZM-5.72003 540.473H-109.277V541.473H-5.72003V540.473ZM-108.844 540.723L-160.623 450.843L-161.489 451.343L-109.711 541.223L-108.844 540.723ZM-160.623 451.343L-108.844 361.462L-109.711 360.963L-161.489 450.843L-160.623 451.343ZM-109.277 361.713H-5.72003V360.713H-109.277V361.713ZM-6.15327 361.462L45.6254 451.343L46.4919 450.843L-5.28677 360.963L-6.15327 361.462Z" fill="#594956"/>
<path d="M1495.87 451.093L1496.3 451.343L1496.44 451.093L1496.3 450.843L1495.87 451.093ZM1444.09 540.973V541.473H1444.38L1444.52 541.223L1444.09 540.973ZM1340.53 540.973L1340.1 541.223L1340.24 541.473H1340.53V540.973ZM1288.75 451.093L1288.32 450.843L1288.18 451.093L1288.32 451.343L1288.75 451.093ZM1340.53 361.213V360.713H1340.24L1340.1 360.963L1340.53 361.213ZM1444.09 361.213L1444.52 360.963L1444.38 360.713H1444.09V361.213ZM1495.43 450.843L1443.66 540.723L1444.52 541.223L1496.3 451.343L1495.43 450.843ZM1444.09 540.473H1340.53V541.473H1444.09V540.473ZM1340.96 540.723L1289.19 450.843L1288.32 451.343L1340.1 541.223L1340.96 540.723ZM1289.19 451.343L1340.96 361.462L1340.1 360.963L1288.32 450.843L1289.19 451.343ZM1340.53 361.713H1444.09V360.713H1340.53V361.713ZM1443.66 361.462L1495.43 451.343L1496.3 450.843L1444.52 360.963L1443.66 361.462Z" fill="#594956"/>
<path d="M46.0587 91.5734L46.4919 91.823L46.6357 91.5734L46.4919 91.3238L46.0587 91.5734ZM-5.72003 181.453V181.953H-5.43105L-5.28679 181.703L-5.72003 181.453ZM-109.277 181.453L-109.711 181.703L-109.566 181.953H-109.277V181.453ZM-161.056 91.5734L-161.489 91.3238L-161.633 91.5734L-161.489 91.823L-161.056 91.5734ZM-109.277 1.69336V1.19336H-109.566L-109.711 1.44377L-109.277 1.69336ZM-5.72003 1.69336L-5.28677 1.44377L-5.43105 1.19336H-5.72003V1.69336ZM45.6254 91.3238L-6.15327 181.204L-5.28679 181.703L46.4919 91.823L45.6254 91.3238ZM-5.72003 180.953H-109.277V181.953H-5.72003V180.953ZM-108.844 181.204L-160.623 91.3238L-161.489 91.823L-109.711 181.703L-108.844 181.204ZM-160.623 91.823L-108.844 1.94295L-109.711 1.44377L-161.489 91.3238L-160.623 91.823ZM-109.277 2.19336H-5.72003V1.19336H-109.277V2.19336ZM-6.15327 1.94295L45.6254 91.823L46.4919 91.3238L-5.28677 1.44377L-6.15327 1.94295Z" fill="#594956"/>
<path d="M1495.87 91.5734L1496.3 91.823L1496.44 91.5734L1496.3 91.3238L1495.87 91.5734ZM1444.09 181.453V181.953H1444.38L1444.52 181.703L1444.09 181.453ZM1340.53 181.453L1340.1 181.703L1340.24 181.953H1340.53V181.453ZM1288.75 91.5734L1288.32 91.3238L1288.18 91.5734L1288.32 91.823L1288.75 91.5734ZM1340.53 1.69336V1.19336H1340.24L1340.1 1.44377L1340.53 1.69336ZM1444.09 1.69336L1444.52 1.44377L1444.38 1.19336H1444.09V1.69336ZM1495.43 91.3238L1443.66 181.204L1444.52 181.703L1496.3 91.823L1495.43 91.3238ZM1444.09 180.953H1340.53V181.953H1444.09V180.953ZM1340.96 181.204L1289.19 91.3238L1288.32 91.823L1340.1 181.703L1340.96 181.204ZM1289.19 91.823L1340.96 1.94295L1340.1 1.44377L1288.32 91.3238L1289.19 91.823ZM1340.53 2.19336H1444.09V1.19336H1340.53V2.19336ZM1443.66 1.94295L1495.43 91.823L1496.3 91.3238L1444.52 1.44377L1443.66 1.94295Z" fill="#594956"/>
<path d="M46.0587 810.613L46.4919 810.863L46.6357 810.613L46.4919 810.364L46.0587 810.613ZM-5.72003 900.493V900.993H-5.43105L-5.28679 900.743L-5.72003 900.493ZM-109.277 900.493L-109.711 900.743L-109.566 900.993H-109.277V900.493ZM-161.056 810.613L-161.489 810.364L-161.633 810.613L-161.489 810.863L-161.056 810.613ZM-109.277 720.733V720.233H-109.566L-109.711 720.484L-109.277 720.733ZM-5.72003 720.733L-5.28677 720.484L-5.43105 720.233H-5.72003V720.733ZM45.6254 810.364L-6.15327 900.244L-5.28679 900.743L46.4919 810.863L45.6254 810.364ZM-5.72003 899.993H-109.277V900.993H-5.72003V899.993ZM-108.844 900.244L-160.623 810.364L-161.489 810.863L-109.711 900.743L-108.844 900.244ZM-160.623 810.863L-108.844 720.983L-109.711 720.484L-161.489 810.364L-160.623 810.863ZM-109.277 721.233H-5.72003V720.233H-109.277V721.233ZM-6.15327 720.983L45.6254 810.863L46.4919 810.364L-5.28677 720.484L-6.15327 720.983Z" fill="#594956"/>
<path d="M1495.87 810.613L1496.3 810.863L1496.44 810.613L1496.3 810.364L1495.87 810.613ZM1444.09 900.493V900.993H1444.38L1444.52 900.743L1444.09 900.493ZM1340.53 900.493L1340.1 900.743L1340.24 900.993H1340.53V900.493ZM1288.75 810.613L1288.32 810.364L1288.18 810.613L1288.32 810.863L1288.75 810.613ZM1340.53 720.733V720.233H1340.24L1340.1 720.484L1340.53 720.733ZM1444.09 720.733L1444.52 720.484L1444.38 720.233H1444.09V720.733ZM1495.43 810.364L1443.66 900.244L1444.52 900.743L1496.3 810.863L1495.43 810.364ZM1444.09 899.993H1340.53V900.993H1444.09V899.993ZM1340.96 900.244L1289.19 810.364L1288.32 810.863L1340.1 900.743L1340.96 900.244ZM1289.19 810.863L1340.96 720.983L1340.1 720.484L1288.32 810.364L1289.19 810.863ZM1340.53 721.233H1444.09V720.233H1340.53V721.233ZM1443.66 720.983L1495.43 810.863L1496.3 810.364L1444.52 720.484L1443.66 720.983Z" fill="#594956"/>
<path d="M770.963 271.333L771.396 271.583L771.54 271.333L771.396 271.084L770.963 271.333ZM719.184 361.213V361.713H719.473L719.618 361.463L719.184 361.213ZM615.627 361.213L615.194 361.463L615.338 361.713H615.627V361.213ZM563.848 271.333L563.415 271.084L563.271 271.333L563.415 271.583L563.848 271.333ZM615.627 181.453V180.953H615.338L615.194 181.204L615.627 181.453ZM719.184 181.453L719.618 181.204L719.473 180.953H719.184V181.453ZM770.53 271.084L718.751 360.964L719.618 361.463L771.396 271.583L770.53 271.084ZM719.184 360.713H615.627V361.713H719.184V360.713ZM616.06 360.964L564.282 271.084L563.415 271.583L615.194 361.463L616.06 360.964ZM564.282 271.583L616.06 181.703L615.194 181.204L563.415 271.084L564.282 271.583ZM615.627 181.953H719.184V180.953H615.627V181.953ZM718.751 181.703L770.53 271.583L771.396 271.084L719.618 181.204L718.751 181.703Z" fill="#594956"/>
<path d="M770.963 630.852L771.396 631.101L771.54 630.852L771.396 630.602L770.963 630.852ZM719.184 720.732V721.232H719.473L719.618 720.981L719.184 720.732ZM615.627 720.732L615.194 720.981L615.338 721.232H615.627V720.732ZM563.848 630.852L563.415 630.602L563.271 630.852L563.415 631.101L563.848 630.852ZM615.627 540.972V540.472H615.338L615.194 540.722L615.627 540.972ZM719.184 540.972L719.618 540.722L719.473 540.472H719.184V540.972ZM770.53 630.602L718.751 720.482L719.618 720.981L771.396 631.101L770.53 630.602ZM719.184 720.232H615.627V721.232H719.184V720.232ZM616.06 720.482L564.282 630.602L563.415 631.101L615.194 720.981L616.06 720.482ZM564.282 631.101L616.06 541.221L615.194 540.722L563.415 630.602L564.282 631.101ZM615.627 541.472H719.184V540.472H615.627V541.472ZM718.751 541.221L770.53 631.101L771.396 630.602L719.618 540.722L718.751 541.221Z" fill="#594956"/>
<path d="M770.963 451.093L771.396 451.343L771.54 451.093L771.396 450.843L770.963 451.093ZM719.184 540.973V541.473H719.473L719.618 541.223L719.184 540.973ZM615.627 540.973L615.194 541.223L615.338 541.473H615.627V540.973ZM563.848 451.093L563.415 450.843L563.271 451.093L563.415 451.343L563.848 451.093ZM615.627 361.213V360.713H615.338L615.194 360.963L615.627 361.213ZM719.184 361.213L719.618 360.963L719.473 360.713H719.184V361.213ZM770.53 450.843L718.751 540.723L719.618 541.223L771.396 451.343L770.53 450.843ZM719.184 540.473H615.627V541.473H719.184V540.473ZM616.06 540.723L564.282 450.843L563.415 451.343L615.194 541.223L616.06 540.723ZM564.282 451.343L616.06 361.462L615.194 360.963L563.415 450.843L564.282 451.343ZM615.627 361.713H719.184V360.713H615.627V361.713ZM718.751 361.462L770.53 451.343L771.396 450.843L719.618 360.963L718.751 361.462Z" fill="#594956"/>
<path d="M770.963 91.5734L771.396 91.823L771.54 91.5734L771.396 91.3238L770.963 91.5734ZM719.184 181.453V181.953H719.473L719.618 181.703L719.184 181.453ZM615.627 181.453L615.194 181.703L615.338 181.953H615.627V181.453ZM563.848 91.5734L563.415 91.3238L563.271 91.5734L563.415 91.823L563.848 91.5734ZM615.627 1.69336V1.19336H615.338L615.194 1.44377L615.627 1.69336ZM719.184 1.69336L719.618 1.44377L719.473 1.19336H719.184V1.69336ZM770.53 91.3238L718.751 181.204L719.618 181.703L771.396 91.823L770.53 91.3238ZM719.184 180.953H615.627V181.953H719.184V180.953ZM616.06 181.204L564.282 91.3238L563.415 91.823L615.194 181.703L616.06 181.204ZM564.282 91.823L616.06 1.94295L615.194 1.44377L563.415 91.3238L564.282 91.823ZM615.627 2.19336H719.184V1.19336H615.627V2.19336ZM718.751 1.94295L770.53 91.823L771.396 91.3238L719.618 1.44377L718.751 1.94295Z" fill="#594956"/>
<path d="M770.963 810.613L771.396 810.863L771.54 810.613L771.396 810.364L770.963 810.613ZM719.184 900.493V900.993H719.473L719.618 900.743L719.184 900.493ZM615.627 900.493L615.194 900.743L615.338 900.993H615.627V900.493ZM563.848 810.613L563.415 810.364L563.271 810.613L563.415 810.863L563.848 810.613ZM615.627 720.733V720.233H615.338L615.194 720.484L615.627 720.733ZM719.184 720.733L719.618 720.484L719.473 720.233H719.184V720.733ZM770.53 810.364L718.751 900.244L719.618 900.743L771.396 810.863L770.53 810.364ZM719.184 899.993H615.627V900.993H719.184V899.993ZM616.06 900.244L564.282 810.364L563.415 810.863L615.194 900.743L616.06 900.244ZM564.282 810.863L616.06 720.983L615.194 720.484L563.415 810.364L564.282 810.863ZM615.627 721.233H719.184V720.233H615.627V721.233ZM718.751 720.983L770.53 810.863L771.396 810.364L719.618 720.484L718.751 720.983Z" fill="#594956"/>
<path d="M149.619 271.333L150.052 271.583L150.196 271.333L150.052 271.084L149.619 271.333ZM97.84 361.213V361.713H98.129L98.2733 361.463L97.84 361.213ZM-5.71739 361.213L-6.15063 361.463L-6.00638 361.713H-5.71739V361.213ZM-57.4961 271.333L-57.9293 271.084L-58.0731 271.333L-57.9293 271.583L-57.4961 271.333ZM-5.71739 181.453V180.953H-6.00638L-6.15063 181.204L-5.71739 181.453ZM97.84 181.453L98.2733 181.204L98.129 180.953H97.84V181.453ZM149.185 271.084L97.4068 360.964L98.2733 361.463L150.052 271.583L149.185 271.084ZM97.84 360.713H-5.71739V361.713H97.84V360.713ZM-5.28414 360.964L-57.0628 271.084L-57.9293 271.583L-6.15063 361.463L-5.28414 360.964ZM-57.0628 271.583L-5.28414 181.703L-6.15063 181.204L-57.9293 271.084L-57.0628 271.583ZM-5.71739 181.953H97.84V180.953H-5.71739V181.953ZM97.4068 181.703L149.185 271.583L150.052 271.084L98.2733 181.204L97.4068 181.703Z" fill="#594956"/>
<path d="M1599.43 271.333L1599.86 271.583L1600 271.333L1599.86 271.084L1599.43 271.333ZM1547.65 361.213V361.713H1547.94L1548.08 361.463L1547.65 361.213ZM1444.09 361.213L1443.66 361.463L1443.8 361.713H1444.09V361.213ZM1392.31 271.333L1391.88 271.084L1391.74 271.333L1391.88 271.583L1392.31 271.333ZM1444.09 181.453V180.953H1443.8L1443.66 181.204L1444.09 181.453ZM1547.65 181.453L1548.08 181.204L1547.94 180.953H1547.65V181.453ZM1598.99 271.084L1547.22 360.964L1548.08 361.463L1599.86 271.583L1598.99 271.084ZM1547.65 360.713H1444.09V361.713H1547.65V360.713ZM1444.52 360.964L1392.75 271.084L1391.88 271.583L1443.66 361.463L1444.52 360.964ZM1392.75 271.583L1444.52 181.703L1443.66 181.204L1391.88 271.084L1392.75 271.583ZM1444.09 181.953H1547.65V180.953H1444.09V181.953ZM1547.22 181.703L1598.99 271.583L1599.86 271.084L1548.08 181.204L1547.22 181.703Z" fill="#594956"/>
<path d="M149.619 630.852L150.052 631.101L150.196 630.852L150.052 630.602L149.619 630.852ZM97.84 720.732V721.232H98.129L98.2733 720.981L97.84 720.732ZM-5.71739 720.732L-6.15063 720.981L-6.00638 721.232H-5.71739V720.732ZM-57.4961 630.852L-57.9293 630.602L-58.0731 630.852L-57.9293 631.101L-57.4961 630.852ZM-5.71739 540.972V540.472H-6.00638L-6.15063 540.722L-5.71739 540.972ZM97.84 540.972L98.2733 540.722L98.129 540.472H97.84V540.972ZM149.185 630.602L97.4068 720.482L98.2733 720.981L150.052 631.101L149.185 630.602ZM97.84 720.232H-5.71739V721.232H97.84V720.232ZM-5.28414 720.482L-57.0628 630.602L-57.9293 631.101L-6.15063 720.981L-5.28414 720.482ZM-57.0628 631.101L-5.28414 541.221L-6.15063 540.722L-57.9293 630.602L-57.0628 631.101ZM-5.71739 541.472H97.84V540.472H-5.71739V541.472ZM97.4068 541.221L149.185 631.101L150.052 630.602L98.2733 540.722L97.4068 541.221Z" fill="#594956"/>
<path d="M1599.43 630.852L1599.86 631.101L1600 630.852L1599.86 630.602L1599.43 630.852ZM1547.65 720.732V721.232H1547.94L1548.08 720.981L1547.65 720.732ZM1444.09 720.732L1443.66 720.981L1443.8 721.232H1444.09V720.732ZM1392.31 630.852L1391.88 630.602L1391.74 630.852L1391.88 631.101L1392.31 630.852ZM1444.09 540.972V540.472H1443.8L1443.66 540.722L1444.09 540.972ZM1547.65 540.972L1548.08 540.722L1547.94 540.472H1547.65V540.972ZM1598.99 630.602L1547.22 720.482L1548.08 720.981L1599.86 631.101L1598.99 630.602ZM1547.65 720.232H1444.09V721.232H1547.65V720.232ZM1444.52 720.482L1392.75 630.602L1391.88 631.101L1443.66 720.981L1444.52 720.482ZM1392.75 631.101L1444.52 541.221L1443.66 540.722L1391.88 630.602L1392.75 631.101ZM1444.09 541.472H1547.65V540.472H1444.09V541.472ZM1547.22 541.221L1598.99 631.101L1599.86 630.602L1548.08 540.722L1547.22 541.221Z" fill="#594956"/>
<path d="M149.619 451.093L150.052 451.343L150.196 451.093L150.052 450.843L149.619 451.093ZM97.84 540.973V541.473H98.129L98.2733 541.223L97.84 540.973ZM-5.71739 540.973L-6.15063 541.223L-6.00638 541.473H-5.71739V540.973ZM-57.4961 451.093L-57.9293 450.843L-58.0731 451.093L-57.9293 451.343L-57.4961 451.093ZM-5.71739 361.213V360.713H-6.00638L-6.15063 360.963L-5.71739 361.213ZM97.84 361.213L98.2733 360.963L98.129 360.713H97.84V361.213ZM149.185 450.843L97.4068 540.723L98.2733 541.223L150.052 451.343L149.185 450.843ZM97.84 540.473H-5.71739V541.473H97.84V540.473ZM-5.28414 540.723L-57.0628 450.843L-57.9293 451.343L-6.15063 541.223L-5.28414 540.723ZM-57.0628 451.343L-5.28414 361.462L-6.15063 360.963L-57.9293 450.843L-57.0628 451.343ZM-5.71739 361.713H97.84V360.713H-5.71739V361.713ZM97.4068 361.462L149.185 451.343L150.052 450.843L98.2733 360.963L97.4068 361.462Z" fill="#594956"/>
<path d="M1599.43 451.093L1599.86 451.343L1600 451.093L1599.86 450.843L1599.43 451.093ZM1547.65 540.973V541.473H1547.94L1548.08 541.223L1547.65 540.973ZM1444.09 540.973L1443.66 541.223L1443.8 541.473H1444.09V540.973ZM1392.31 451.093L1391.88 450.843L1391.74 451.093L1391.88 451.343L1392.31 451.093ZM1444.09 361.213V360.713H1443.8L1443.66 360.963L1444.09 361.213ZM1547.65 361.213L1548.08 360.963L1547.94 360.713H1547.65V361.213ZM1598.99 450.843L1547.22 540.723L1548.08 541.223L1599.86 451.343L1598.99 450.843ZM1547.65 540.473H1444.09V541.473H1547.65V540.473ZM1444.52 540.723L1392.75 450.843L1391.88 451.343L1443.66 541.223L1444.52 540.723ZM1392.75 451.343L1444.52 361.462L1443.66 360.963L1391.88 450.843L1392.75 451.343ZM1444.09 361.713H1547.65V360.713H1444.09V361.713ZM1547.22 361.462L1598.99 451.343L1599.86 450.843L1548.08 360.963L1547.22 361.462Z" fill="#594956"/>
<path d="M149.619 91.5734L150.052 91.823L150.196 91.5734L150.052 91.3238L149.619 91.5734ZM97.84 181.453V181.953H98.129L98.2733 181.703L97.84 181.453ZM-5.71739 181.453L-6.15063 181.703L-6.00638 181.953H-5.71739V181.453ZM-57.4961 91.5734L-57.9293 91.3238L-58.0731 91.5734L-57.9293 91.823L-57.4961 91.5734ZM-5.71739 1.69336V1.19336H-6.00638L-6.15063 1.44377L-5.71739 1.69336ZM97.84 1.69336L98.2733 1.44377L98.129 1.19336H97.84V1.69336ZM149.185 91.3238L97.4068 181.204L98.2733 181.703L150.052 91.823L149.185 91.3238ZM97.84 180.953H-5.71739V181.953H97.84V180.953ZM-5.28414 181.204L-57.0628 91.3238L-57.9293 91.823L-6.15063 181.703L-5.28414 181.204ZM-57.0628 91.823L-5.28414 1.94295L-6.15063 1.44377L-57.9293 91.3238L-57.0628 91.823ZM-5.71739 2.19336H97.84V1.19336H-5.71739V2.19336ZM97.4068 1.94295L149.185 91.823L150.052 91.3238L98.2733 1.44377L97.4068 1.94295Z" fill="#594956"/>
<path d="M1599.43 91.5734L1599.86 91.823L1600 91.5734L1599.86 91.3238L1599.43 91.5734ZM1547.65 181.453V181.953H1547.94L1548.08 181.703L1547.65 181.453ZM1444.09 181.453L1443.66 181.703L1443.8 181.953H1444.09V181.453ZM1392.31 91.5734L1391.88 91.3238L1391.74 91.5734L1391.88 91.823L1392.31 91.5734ZM1444.09 1.69336V1.19336H1443.8L1443.66 1.44377L1444.09 1.69336ZM1547.65 1.69336L1548.08 1.44377L1547.94 1.19336H1547.65V1.69336ZM1598.99 91.3238L1547.22 181.204L1548.08 181.703L1599.86 91.823L1598.99 91.3238ZM1547.65 180.953H1444.09V181.953H1547.65V180.953ZM1444.52 181.204L1392.75 91.3238L1391.88 91.823L1443.66 181.703L1444.52 181.204ZM1392.75 91.823L1444.52 1.94295L1443.66 1.44377L1391.88 91.3238L1392.75 91.823ZM1444.09 2.19336H1547.65V1.19336H1444.09V2.19336ZM1547.22 1.94295L1598.99 91.823L1599.86 91.3238L1548.08 1.44377L1547.22 1.94295Z" fill="#594956"/>
<path d="M149.619 810.613L150.052 810.863L150.196 810.613L150.052 810.364L149.619 810.613ZM97.84 900.493V900.993H98.129L98.2733 900.743L97.84 900.493ZM-5.71739 900.493L-6.15063 900.743L-6.00638 900.993H-5.71739V900.493ZM-57.4961 810.613L-57.9293 810.364L-58.0731 810.613L-57.9293 810.863L-57.4961 810.613ZM-5.71739 720.733V720.233H-6.00638L-6.15063 720.484L-5.71739 720.733ZM97.84 720.733L98.2733 720.484L98.129 720.233H97.84V720.733ZM149.185 810.364L97.4068 900.244L98.2733 900.743L150.052 810.863L149.185 810.364ZM97.84 899.993H-5.71739V900.993H97.84V899.993ZM-5.28414 900.244L-57.0628 810.364L-57.9293 810.863L-6.15063 900.743L-5.28414 900.244ZM-57.0628 810.863L-5.28414 720.983L-6.15063 720.484L-57.9293 810.364L-57.0628 810.863ZM-5.71739 721.233H97.84V720.233H-5.71739V721.233ZM97.4068 720.983L149.185 810.863L150.052 810.364L98.2733 720.484L97.4068 720.983Z" fill="#594956"/>
<path d="M1599.43 810.613L1599.86 810.863L1600 810.613L1599.86 810.364L1599.43 810.613ZM1547.65 900.493V900.993H1547.94L1548.08 900.743L1547.65 900.493ZM1444.09 900.493L1443.66 900.743L1443.8 900.993H1444.09V900.493ZM1392.31 810.613L1391.88 810.364L1391.74 810.613L1391.88 810.863L1392.31 810.613ZM1444.09 720.733V720.233H1443.8L1443.66 720.484L1444.09 720.733ZM1547.65 720.733L1548.08 720.484L1547.94 720.233H1547.65V720.733ZM1598.99 810.364L1547.22 900.244L1548.08 900.743L1599.86 810.863L1598.99 810.364ZM1547.65 899.993H1444.09V900.993H1547.65V899.993ZM1444.52 900.244L1392.75 810.364L1391.88 810.863L1443.66 900.743L1444.52 900.244ZM1392.75 810.863L1444.52 720.983L1443.66 720.484L1391.88 810.364L1392.75 810.863ZM1444.09 721.233H1547.65V720.233H1444.09V721.233ZM1547.22 720.983L1598.99 810.863L1599.86 810.364L1548.08 720.484L1547.22 720.983Z" fill="#594956"/>
<path d="M874.521 271.333L874.954 271.583L875.098 271.333L874.954 271.084L874.521 271.333ZM822.742 361.213V361.713H823.031L823.175 361.463L822.742 361.213ZM719.184 361.213L718.751 361.463L718.895 361.713H719.184V361.213ZM667.406 271.333L666.973 271.084L666.829 271.333L666.973 271.583L667.406 271.333ZM719.184 181.453V180.953H718.895L718.751 181.204L719.184 181.453ZM822.742 181.453L823.175 181.204L823.031 180.953H822.742V181.453ZM874.087 271.084L822.309 360.964L823.175 361.463L874.954 271.583L874.087 271.084ZM822.742 360.713H719.184V361.713H822.742V360.713ZM719.618 360.964L667.839 271.084L666.973 271.583L718.751 361.463L719.618 360.964ZM667.839 271.583L719.618 181.703L718.751 181.204L666.973 271.084L667.839 271.583ZM719.184 181.953H822.742V180.953H719.184V181.953ZM822.309 181.703L874.087 271.583L874.954 271.084L823.175 181.204L822.309 181.703Z" fill="#594956"/>
<path d="M874.521 630.852L874.954 631.101L875.098 630.852L874.954 630.602L874.521 630.852ZM822.742 720.732V721.232H823.031L823.175 720.981L822.742 720.732ZM719.184 720.732L718.751 720.981L718.895 721.232H719.184V720.732ZM667.406 630.852L666.973 630.602L666.829 630.852L666.973 631.101L667.406 630.852ZM719.184 540.972V540.472H718.895L718.751 540.722L719.184 540.972ZM822.742 540.972L823.175 540.722L823.031 540.472H822.742V540.972ZM874.087 630.602L822.309 720.482L823.175 720.981L874.954 631.101L874.087 630.602ZM822.742 720.232H719.184V721.232H822.742V720.232ZM719.618 720.482L667.839 630.602L666.973 631.101L718.751 720.981L719.618 720.482ZM667.839 631.101L719.618 541.221L718.751 540.722L666.973 630.602L667.839 631.101ZM719.184 541.472H822.742V540.472H719.184V541.472ZM822.309 541.221L874.087 631.101L874.954 630.602L823.175 540.722L822.309 541.221Z" fill="#594956"/>
<path d="M874.521 451.093L874.954 451.343L875.098 451.093L874.954 450.843L874.521 451.093ZM822.742 540.973V541.473H823.031L823.175 541.223L822.742 540.973ZM719.184 540.973L718.751 541.223L718.895 541.473H719.184V540.973ZM667.406 451.093L666.973 450.843L666.829 451.093L666.973 451.343L667.406 451.093ZM719.184 361.213V360.713H718.895L718.751 360.963L719.184 361.213ZM822.742 361.213L823.175 360.963L823.031 360.713H822.742V361.213ZM874.087 450.843L822.309 540.723L823.175 541.223L874.954 451.343L874.087 450.843ZM822.742 540.473H719.184V541.473H822.742V540.473ZM719.618 540.723L667.839 450.843L666.973 451.343L718.751 541.223L719.618 540.723ZM667.839 451.343L719.618 361.462L718.751 360.963L666.973 450.843L667.839 451.343ZM719.184 361.713H822.742V360.713H719.184V361.713ZM822.309 361.462L874.087 451.343L874.954 450.843L823.175 360.963L822.309 361.462Z" fill="#594956"/>
<path d="M874.521 91.5734L874.954 91.823L875.098 91.5734L874.954 91.3238L874.521 91.5734ZM822.742 181.453V181.953H823.031L823.175 181.703L822.742 181.453ZM719.184 181.453L718.751 181.703L718.895 181.953H719.184V181.453ZM667.406 91.5734L666.973 91.3238L666.829 91.5734L666.973 91.823L667.406 91.5734ZM719.184 1.69336V1.19336H718.895L718.751 1.44377L719.184 1.69336ZM822.742 1.69336L823.175 1.44377L823.031 1.19336H822.742V1.69336ZM874.087 91.3238L822.309 181.204L823.175 181.703L874.954 91.823L874.087 91.3238ZM822.742 180.953H719.184V181.953H822.742V180.953ZM719.618 181.204L667.839 91.3238L666.973 91.823L718.751 181.703L719.618 181.204ZM667.839 91.823L719.618 1.94295L718.751 1.44377L666.973 91.3238L667.839 91.823ZM719.184 2.19336H822.742V1.19336H719.184V2.19336ZM822.309 1.94295L874.087 91.823L874.954 91.3238L823.175 1.44377L822.309 1.94295Z" fill="#594956"/>
<path d="M874.521 810.613L874.954 810.863L875.098 810.613L874.954 810.364L874.521 810.613ZM822.742 900.493V900.993H823.031L823.175 900.743L822.742 900.493ZM719.184 900.493L718.751 900.743L718.895 900.993H719.184V900.493ZM667.406 810.613L666.973 810.364L666.829 810.613L666.973 810.863L667.406 810.613ZM719.184 720.733V720.233H718.895L718.751 720.484L719.184 720.733ZM822.742 720.733L823.175 720.484L823.031 720.233H822.742V720.733ZM874.087 810.364L822.309 900.244L823.175 900.743L874.954 810.863L874.087 810.364ZM822.742 899.993H719.184V900.993H822.742V899.993ZM719.618 900.244L667.839 810.364L666.973 810.863L718.751 900.743L719.618 900.244ZM667.839 810.863L719.618 720.983L718.751 720.484L666.973 810.364L667.839 810.863ZM719.184 721.233H822.742V720.233H719.184V721.233ZM822.309 720.983L874.087 810.863L874.954 810.364L823.175 720.484L822.309 720.983Z" fill="#594956"/>
<path d="M1392.31 271.333L1392.74 271.583L1392.89 271.333L1392.74 271.084L1392.31 271.333ZM1340.53 361.213V361.713H1340.82L1340.96 361.463L1340.53 361.213ZM1236.97 361.213L1236.54 361.463L1236.68 361.713H1236.97V361.213ZM1185.19 271.333L1184.76 271.084L1184.62 271.333L1184.76 271.583L1185.19 271.333ZM1236.97 181.453V180.953H1236.68L1236.54 181.204L1236.97 181.453ZM1340.53 181.453L1340.96 181.204L1340.82 180.953H1340.53V181.453ZM1391.88 271.084L1340.1 360.964L1340.96 361.463L1392.74 271.583L1391.88 271.084ZM1340.53 360.713H1236.97V361.713H1340.53V360.713ZM1237.41 360.964L1185.63 271.084L1184.76 271.583L1236.54 361.463L1237.41 360.964ZM1185.63 271.583L1237.41 181.703L1236.54 181.204L1184.76 271.084L1185.63 271.583ZM1236.97 181.953H1340.53V180.953H1236.97V181.953ZM1340.1 181.703L1391.88 271.583L1392.74 271.084L1340.96 181.204L1340.1 181.703Z" fill="#594956"/>
<path d="M1392.31 630.852L1392.74 631.101L1392.89 630.852L1392.74 630.602L1392.31 630.852ZM1340.53 720.732V721.232H1340.82L1340.96 720.981L1340.53 720.732ZM1236.97 720.732L1236.54 720.981L1236.68 721.232H1236.97V720.732ZM1185.19 630.852L1184.76 630.602L1184.62 630.852L1184.76 631.101L1185.19 630.852ZM1236.97 540.972V540.472H1236.68L1236.54 540.722L1236.97 540.972ZM1340.53 540.972L1340.96 540.722L1340.82 540.472H1340.53V540.972ZM1391.88 630.602L1340.1 720.482L1340.96 720.981L1392.74 631.101L1391.88 630.602ZM1340.53 720.232H1236.97V721.232H1340.53V720.232ZM1237.41 720.482L1185.63 630.602L1184.76 631.101L1236.54 720.981L1237.41 720.482ZM1185.63 631.101L1237.41 541.221L1236.54 540.722L1184.76 630.602L1185.63 631.101ZM1236.97 541.472H1340.53V540.472H1236.97V541.472ZM1340.1 541.221L1391.88 631.101L1392.74 630.602L1340.96 540.722L1340.1 541.221Z" fill="#594956"/>
<path d="M1392.31 451.093L1392.74 451.343L1392.89 451.093L1392.74 450.843L1392.31 451.093ZM1340.53 540.973V541.473H1340.82L1340.96 541.223L1340.53 540.973ZM1236.97 540.973L1236.54 541.223L1236.68 541.473H1236.97V540.973ZM1185.19 451.093L1184.76 450.843L1184.62 451.093L1184.76 451.343L1185.19 451.093ZM1236.97 361.213V360.713H1236.68L1236.54 360.963L1236.97 361.213ZM1340.53 361.213L1340.96 360.963L1340.82 360.713H1340.53V361.213ZM1391.88 450.843L1340.1 540.723L1340.96 541.223L1392.74 451.343L1391.88 450.843ZM1340.53 540.473H1236.97V541.473H1340.53V540.473ZM1237.41 540.723L1185.63 450.843L1184.76 451.343L1236.54 541.223L1237.41 540.723ZM1185.63 451.343L1237.41 361.462L1236.54 360.963L1184.76 450.843L1185.63 451.343ZM1236.97 361.713H1340.53V360.713H1236.97V361.713ZM1340.1 361.462L1391.88 451.343L1392.74 450.843L1340.96 360.963L1340.1 361.462Z" fill="#594956"/>
<path d="M1392.31 91.5734L1392.74 91.823L1392.89 91.5734L1392.74 91.3238L1392.31 91.5734ZM1340.53 181.453V181.953H1340.82L1340.96 181.703L1340.53 181.453ZM1236.97 181.453L1236.54 181.703L1236.68 181.953H1236.97V181.453ZM1185.19 91.5734L1184.76 91.3238L1184.62 91.5734L1184.76 91.823L1185.19 91.5734ZM1236.97 1.69336V1.19336H1236.68L1236.54 1.44377L1236.97 1.69336ZM1340.53 1.69336L1340.96 1.44377L1340.82 1.19336H1340.53V1.69336ZM1391.88 91.3238L1340.1 181.204L1340.96 181.703L1392.74 91.823L1391.88 91.3238ZM1340.53 180.953H1236.97V181.953H1340.53V180.953ZM1237.41 181.204L1185.63 91.3238L1184.76 91.823L1236.54 181.703L1237.41 181.204ZM1185.63 91.823L1237.41 1.94295L1236.54 1.44377L1184.76 91.3238L1185.63 91.823ZM1236.97 2.19336H1340.53V1.19336H1236.97V2.19336ZM1340.1 1.94295L1391.88 91.823L1392.74 91.3238L1340.96 1.44377L1340.1 1.94295Z" fill="#594956"/>
<path d="M1392.31 810.613L1392.74 810.863L1392.89 810.613L1392.74 810.364L1392.31 810.613ZM1340.53 900.493V900.993H1340.82L1340.96 900.743L1340.53 900.493ZM1236.97 900.493L1236.54 900.743L1236.68 900.993H1236.97V900.493ZM1185.19 810.613L1184.76 810.364L1184.62 810.613L1184.76 810.863L1185.19 810.613ZM1236.97 720.733V720.233H1236.68L1236.54 720.484L1236.97 720.733ZM1340.53 720.733L1340.96 720.484L1340.82 720.233H1340.53V720.733ZM1391.88 810.364L1340.1 900.244L1340.96 900.743L1392.74 810.863L1391.88 810.364ZM1340.53 899.993H1236.97V900.993H1340.53V899.993ZM1237.41 900.244L1185.63 810.364L1184.76 810.863L1236.54 900.743L1237.41 900.244ZM1185.63 810.863L1237.41 720.983L1236.54 720.484L1184.76 810.364L1185.63 810.863ZM1236.97 721.233H1340.53V720.233H1236.97V721.233ZM1340.1 720.983L1391.88 810.863L1392.74 810.364L1340.96 720.484L1340.1 720.983Z" fill="#594956"/>
<path d="M667.406 271.333L667.839 271.583L667.983 271.333L667.839 271.084L667.406 271.333ZM615.627 361.213V361.713H615.916L616.06 361.463L615.627 361.213ZM512.07 361.213L511.636 361.463L511.781 361.713H512.07V361.213ZM460.291 271.333L459.858 271.084L459.714 271.333L459.858 271.583L460.291 271.333ZM512.07 181.453V180.953H511.781L511.636 181.204L512.07 181.453ZM615.627 181.453L616.06 181.204L615.916 180.953H615.627V181.453ZM666.972 271.084L615.194 360.964L616.06 361.463L667.839 271.583L666.972 271.084ZM615.627 360.713H512.07V361.713H615.627V360.713ZM512.503 360.964L460.724 271.084L459.858 271.583L511.636 361.463L512.503 360.964ZM460.724 271.583L512.503 181.703L511.636 181.204L459.858 271.084L460.724 271.583ZM512.07 181.953H615.627V180.953H512.07V181.953ZM615.194 181.703L666.972 271.583L667.839 271.084L616.06 181.204L615.194 181.703Z" fill="#594956"/>
<path d="M667.406 630.852L667.839 631.101L667.983 630.852L667.839 630.602L667.406 630.852ZM615.627 720.732V721.232H615.916L616.06 720.981L615.627 720.732ZM512.07 720.732L511.636 720.981L511.781 721.232H512.07V720.732ZM460.291 630.852L459.858 630.602L459.714 630.852L459.858 631.101L460.291 630.852ZM512.07 540.972V540.472H511.781L511.636 540.722L512.07 540.972ZM615.627 540.972L616.06 540.722L615.916 540.472H615.627V540.972ZM666.972 630.602L615.194 720.482L616.06 720.981L667.839 631.101L666.972 630.602ZM615.627 720.232H512.07V721.232H615.627V720.232ZM512.503 720.482L460.724 630.602L459.858 631.101L511.636 720.981L512.503 720.482ZM460.724 631.101L512.503 541.221L511.636 540.722L459.858 630.602L460.724 631.101ZM512.07 541.472H615.627V540.472H512.07V541.472ZM615.194 541.221L666.972 631.101L667.839 630.602L616.06 540.722L615.194 541.221Z" fill="#594956"/>
<path d="M667.406 451.093L667.839 451.343L667.983 451.093L667.839 450.843L667.406 451.093ZM615.627 540.973V541.473H615.916L616.06 541.223L615.627 540.973ZM512.07 540.973L511.636 541.223L511.781 541.473H512.07V540.973ZM460.291 451.093L459.858 450.843L459.714 451.093L459.858 451.343L460.291 451.093ZM512.07 361.213V360.713H511.781L511.636 360.963L512.07 361.213ZM615.627 361.213L616.06 360.963L615.916 360.713H615.627V361.213ZM666.972 450.843L615.194 540.723L616.06 541.223L667.839 451.343L666.972 450.843ZM615.627 540.473H512.07V541.473H615.627V540.473ZM512.503 540.723L460.724 450.843L459.858 451.343L511.636 541.223L512.503 540.723ZM460.724 451.343L512.503 361.462L511.636 360.963L459.858 450.843L460.724 451.343ZM512.07 361.713H615.627V360.713H512.07V361.713ZM615.194 361.462L666.972 451.343L667.839 450.843L616.06 360.963L615.194 361.462Z" fill="#594956"/>
<path d="M667.406 91.5734L667.839 91.823L667.983 91.5734L667.839 91.3238L667.406 91.5734ZM615.627 181.453V181.953H615.916L616.06 181.703L615.627 181.453ZM512.07 181.453L511.636 181.703L511.781 181.953H512.07V181.453ZM460.291 91.5734L459.858 91.3238L459.714 91.5734L459.858 91.823L460.291 91.5734ZM512.07 1.69336V1.19336H511.781L511.636 1.44377L512.07 1.69336ZM615.627 1.69336L616.06 1.44377L615.916 1.19336H615.627V1.69336ZM666.972 91.3238L615.194 181.204L616.06 181.703L667.839 91.823L666.972 91.3238ZM615.627 180.953H512.07V181.953H615.627V180.953ZM512.503 181.204L460.724 91.3238L459.858 91.823L511.636 181.703L512.503 181.204ZM460.724 91.823L512.503 1.94295L511.636 1.44377L459.858 91.3238L460.724 91.823ZM512.07 2.19336H615.627V1.19336H512.07V2.19336ZM615.194 1.94295L666.972 91.823L667.839 91.3238L616.06 1.44377L615.194 1.94295Z" fill="#594956"/>
<path d="M667.406 810.613L667.839 810.863L667.983 810.613L667.839 810.364L667.406 810.613ZM615.627 900.493V900.993H615.916L616.06 900.743L615.627 900.493ZM512.07 900.493L511.636 900.743L511.781 900.993H512.07V900.493ZM460.291 810.613L459.858 810.364L459.714 810.613L459.858 810.863L460.291 810.613ZM512.07 720.733V720.233H511.781L511.636 720.484L512.07 720.733ZM615.627 720.733L616.06 720.484L615.916 720.233H615.627V720.733ZM666.972 810.364L615.194 900.244L616.06 900.743L667.839 810.863L666.972 810.364ZM615.627 899.993H512.07V900.993H615.627V899.993ZM512.503 900.244L460.724 810.364L459.858 810.863L511.636 900.743L512.503 900.244ZM460.724 810.863L512.503 720.983L511.636 720.484L459.858 810.364L460.724 810.863ZM512.07 721.233H615.627V720.233H512.07V721.233ZM615.194 720.983L666.972 810.863L667.839 810.364L616.06 720.484L615.194 720.983Z" fill="#594956"/>
<path d="M1185.19 271.333L1185.63 271.583L1185.77 271.333L1185.63 271.084L1185.19 271.333ZM1133.41 361.213V361.713H1133.7L1133.85 361.463L1133.41 361.213ZM1029.86 361.213L1029.42 361.463L1029.57 361.713H1029.86V361.213ZM978.078 271.333L977.644 271.084L977.501 271.333L977.644 271.583L978.078 271.333ZM1029.86 181.453V180.953H1029.57L1029.42 181.204L1029.86 181.453ZM1133.41 181.453L1133.85 181.204L1133.7 180.953H1133.41V181.453ZM1184.76 271.084L1132.98 360.964L1133.85 361.463L1185.63 271.583L1184.76 271.084ZM1133.41 360.713H1029.86V361.713H1133.41V360.713ZM1030.29 360.964L978.511 271.084L977.644 271.583L1029.42 361.463L1030.29 360.964ZM978.511 271.583L1030.29 181.703L1029.42 181.204L977.644 271.084L978.511 271.583ZM1029.86 181.953H1133.41V180.953H1029.86V181.953ZM1132.98 181.703L1184.76 271.583L1185.63 271.084L1133.85 181.204L1132.98 181.703Z" fill="#594956"/>
<path d="M1185.19 630.852L1185.63 631.101L1185.77 630.852L1185.63 630.602L1185.19 630.852ZM1133.41 720.732V721.232H1133.7L1133.85 720.981L1133.41 720.732ZM1029.86 720.732L1029.42 720.981L1029.57 721.232H1029.86V720.732ZM978.078 630.852L977.644 630.602L977.501 630.852L977.644 631.101L978.078 630.852ZM1029.86 540.972V540.472H1029.57L1029.42 540.722L1029.86 540.972ZM1133.41 540.972L1133.85 540.722L1133.7 540.472H1133.41V540.972ZM1184.76 630.602L1132.98 720.482L1133.85 720.981L1185.63 631.101L1184.76 630.602ZM1133.41 720.232H1029.86V721.232H1133.41V720.232ZM1030.29 720.482L978.511 630.602L977.644 631.101L1029.42 720.981L1030.29 720.482ZM978.511 631.101L1030.29 541.221L1029.42 540.722L977.644 630.602L978.511 631.101ZM1029.86 541.472H1133.41V540.472H1029.86V541.472ZM1132.98 541.221L1184.76 631.101L1185.63 630.602L1133.85 540.722L1132.98 541.221Z" fill="#594956"/>
<path d="M1185.19 451.093L1185.63 451.343L1185.77 451.093L1185.63 450.843L1185.19 451.093ZM1133.41 540.973V541.473H1133.7L1133.85 541.223L1133.41 540.973ZM1029.86 540.973L1029.42 541.223L1029.57 541.473H1029.86V540.973ZM978.078 451.093L977.644 450.843L977.501 451.093L977.644 451.343L978.078 451.093ZM1029.86 361.213V360.713H1029.57L1029.42 360.963L1029.86 361.213ZM1133.41 361.213L1133.85 360.963L1133.7 360.713H1133.41V361.213ZM1184.76 450.843L1132.98 540.723L1133.85 541.223L1185.63 451.343L1184.76 450.843ZM1133.41 540.473H1029.86V541.473H1133.41V540.473ZM1030.29 540.723L978.511 450.843L977.644 451.343L1029.42 541.223L1030.29 540.723ZM978.511 451.343L1030.29 361.462L1029.42 360.963L977.644 450.843L978.511 451.343ZM1029.86 361.713H1133.41V360.713H1029.86V361.713ZM1132.98 361.462L1184.76 451.343L1185.63 450.843L1133.85 360.963L1132.98 361.462Z" fill="#594956"/>
<path d="M1185.19 91.5734L1185.63 91.823L1185.77 91.5734L1185.63 91.3238L1185.19 91.5734ZM1133.41 181.453V181.953H1133.7L1133.85 181.703L1133.41 181.453ZM1029.86 181.453L1029.42 181.703L1029.57 181.953H1029.86V181.453ZM978.078 91.5734L977.644 91.3238L977.501 91.5734L977.644 91.823L978.078 91.5734ZM1029.86 1.69336V1.19336H1029.57L1029.42 1.44377L1029.86 1.69336ZM1133.41 1.69336L1133.85 1.44377L1133.7 1.19336H1133.41V1.69336ZM1184.76 91.3238L1132.98 181.204L1133.85 181.703L1185.63 91.823L1184.76 91.3238ZM1133.41 180.953H1029.86V181.953H1133.41V180.953ZM1030.29 181.204L978.511 91.3238L977.644 91.823L1029.42 181.703L1030.29 181.204ZM978.511 91.823L1030.29 1.94295L1029.42 1.44377L977.644 91.3238L978.511 91.823ZM1029.86 2.19336H1133.41V1.19336H1029.86V2.19336ZM1132.98 1.94295L1184.76 91.823L1185.63 91.3238L1133.85 1.44377L1132.98 1.94295Z" fill="#594956"/>
<path d="M1185.19 810.613L1185.63 810.863L1185.77 810.613L1185.63 810.364L1185.19 810.613ZM1133.41 900.493V900.993H1133.7L1133.85 900.743L1133.41 900.493ZM1029.86 900.493L1029.42 900.743L1029.57 900.993H1029.86V900.493ZM978.078 810.613L977.644 810.364L977.501 810.613L977.644 810.863L978.078 810.613ZM1029.86 720.733V720.233H1029.57L1029.42 720.484L1029.86 720.733ZM1133.41 720.733L1133.85 720.484L1133.7 720.233H1133.41V720.733ZM1184.76 810.364L1132.98 900.244L1133.85 900.743L1185.63 810.863L1184.76 810.364ZM1133.41 899.993H1029.86V900.993H1133.41V899.993ZM1030.29 900.244L978.511 810.364L977.644 810.863L1029.42 900.743L1030.29 900.244ZM978.511 810.863L1030.29 720.983L1029.42 720.484L977.644 810.364L978.511 810.863ZM1029.86 721.233H1133.41V720.233H1029.86V721.233ZM1132.98 720.983L1184.76 810.863L1185.63 810.364L1133.85 720.484L1132.98 720.983Z" fill="#594956"/>
<path d="M460.291 271.333L460.724 271.583L460.868 271.333L460.724 271.084L460.291 271.333ZM408.512 361.213V361.713H408.801L408.946 361.463L408.512 361.213ZM304.955 361.213L304.522 361.463L304.666 361.713H304.955V361.213ZM253.176 271.333L252.743 271.084L252.599 271.333L252.743 271.583L253.176 271.333ZM304.955 181.453V180.953H304.666L304.522 181.204L304.955 181.453ZM408.512 181.453L408.946 181.204L408.801 180.953H408.512V181.453ZM459.858 271.084L408.079 360.964L408.946 361.463L460.724 271.583L459.858 271.084ZM408.512 360.713H304.955V361.713H408.512V360.713ZM305.388 360.964L253.609 271.084L252.743 271.583L304.522 361.463L305.388 360.964ZM253.609 271.583L305.388 181.703L304.522 181.204L252.743 271.084L253.609 271.583ZM304.955 181.953H408.512V180.953H304.955V181.953ZM408.079 181.703L459.858 271.583L460.724 271.084L408.946 181.204L408.079 181.703Z" fill="#594956"/>
<path d="M460.291 630.852L460.724 631.101L460.868 630.852L460.724 630.602L460.291 630.852ZM408.512 720.732V721.232H408.801L408.946 720.981L408.512 720.732ZM304.955 720.732L304.522 720.981L304.666 721.232H304.955V720.732ZM253.176 630.852L252.743 630.602L252.599 630.852L252.743 631.101L253.176 630.852ZM304.955 540.972V540.472H304.666L304.522 540.722L304.955 540.972ZM408.512 540.972L408.946 540.722L408.801 540.472H408.512V540.972ZM459.858 630.602L408.079 720.482L408.946 720.981L460.724 631.101L459.858 630.602ZM408.512 720.232H304.955V721.232H408.512V720.232ZM305.388 720.482L253.609 630.602L252.743 631.101L304.522 720.981L305.388 720.482ZM253.609 631.101L305.388 541.221L304.522 540.722L252.743 630.602L253.609 631.101ZM304.955 541.472H408.512V540.472H304.955V541.472ZM408.079 541.221L459.858 631.101L460.724 630.602L408.946 540.722L408.079 541.221Z" fill="#594956"/>
<path d="M460.291 451.093L460.724 451.343L460.868 451.093L460.724 450.843L460.291 451.093ZM408.512 540.973V541.473H408.801L408.946 541.223L408.512 540.973ZM304.955 540.973L304.522 541.223L304.666 541.473H304.955V540.973ZM253.176 451.093L252.743 450.843L252.599 451.093L252.743 451.343L253.176 451.093ZM304.955 361.213V360.713H304.666L304.522 360.963L304.955 361.213ZM408.512 361.213L408.946 360.963L408.801 360.713H408.512V361.213ZM459.858 450.843L408.079 540.723L408.946 541.223L460.724 451.343L459.858 450.843ZM408.512 540.473H304.955V541.473H408.512V540.473ZM305.388 540.723L253.609 450.843L252.743 451.343L304.522 541.223L305.388 540.723ZM253.609 451.343L305.388 361.462L304.522 360.963L252.743 450.843L253.609 451.343ZM304.955 361.713H408.512V360.713H304.955V361.713ZM408.079 361.462L459.858 451.343L460.724 450.843L408.946 360.963L408.079 361.462Z" fill="#594956"/>
<path d="M460.291 91.5734L460.724 91.823L460.868 91.5734L460.724 91.3238L460.291 91.5734ZM408.512 181.453V181.953H408.801L408.946 181.703L408.512 181.453ZM304.955 181.453L304.522 181.703L304.666 181.953H304.955V181.453ZM253.176 91.5734L252.743 91.3238L252.599 91.5734L252.743 91.823L253.176 91.5734ZM304.955 1.69336V1.19336H304.666L304.522 1.44377L304.955 1.69336ZM408.512 1.69336L408.946 1.44377L408.801 1.19336H408.512V1.69336ZM459.858 91.3238L408.079 181.204L408.946 181.703L460.724 91.823L459.858 91.3238ZM408.512 180.953H304.955V181.953H408.512V180.953ZM305.388 181.204L253.609 91.3238L252.743 91.823L304.522 181.703L305.388 181.204ZM253.609 91.823L305.388 1.94295L304.522 1.44377L252.743 91.3238L253.609 91.823ZM304.955 2.19336H408.512V1.19336H304.955V2.19336ZM408.079 1.94295L459.858 91.823L460.724 91.3238L408.946 1.44377L408.079 1.94295Z" fill="#594956"/>
<path d="M460.291 810.613L460.724 810.863L460.868 810.613L460.724 810.364L460.291 810.613ZM408.512 900.493V900.993H408.801L408.946 900.743L408.512 900.493ZM304.955 900.493L304.522 900.743L304.666 900.993H304.955V900.493ZM253.176 810.613L252.743 810.364L252.599 810.613L252.743 810.863L253.176 810.613ZM304.955 720.733V720.233H304.666L304.522 720.484L304.955 720.733ZM408.512 720.733L408.946 720.484L408.801 720.233H408.512V720.733ZM459.858 810.364L408.079 900.244L408.946 900.743L460.724 810.863L459.858 810.364ZM408.512 899.993H304.955V900.993H408.512V899.993ZM305.388 900.244L253.609 810.364L252.743 810.863L304.522 900.743L305.388 900.244ZM253.609 810.863L305.388 720.983L304.522 720.484L252.743 810.364L253.609 810.863ZM304.955 721.233H408.512V720.233H304.955V721.233ZM408.079 720.983L459.858 810.863L460.724 810.364L408.946 720.484L408.079 720.983Z" fill="#594956"/>
<path d="M978.078 271.333L978.511 271.583L978.655 271.333L978.511 271.084L978.078 271.333ZM926.299 361.213V361.713H926.588L926.732 361.463L926.299 361.213ZM822.742 361.213L822.308 361.463L822.453 361.713H822.742V361.213ZM770.963 271.333L770.53 271.084L770.386 271.333L770.53 271.583L770.963 271.333ZM822.742 181.453V180.953H822.453L822.308 181.204L822.742 181.453ZM926.299 181.453L926.732 181.204L926.588 180.953H926.299V181.453ZM977.645 271.084L925.866 360.964L926.732 361.463L978.511 271.583L977.645 271.084ZM926.299 360.713H822.742V361.713H926.299V360.713ZM823.175 360.964L771.396 271.084L770.53 271.583L822.308 361.463L823.175 360.964ZM771.396 271.583L823.175 181.703L822.308 181.204L770.53 271.084L771.396 271.583ZM822.742 181.953H926.299V180.953H822.742V181.953ZM925.866 181.703L977.645 271.583L978.511 271.084L926.732 181.204L925.866 181.703Z" fill="#594956"/>
<path d="M978.078 630.852L978.511 631.101L978.655 630.852L978.511 630.602L978.078 630.852ZM926.299 720.732V721.232H926.588L926.732 720.981L926.299 720.732ZM822.742 720.732L822.308 720.981L822.453 721.232H822.742V720.732ZM770.963 630.852L770.53 630.602L770.386 630.852L770.53 631.101L770.963 630.852ZM822.742 540.972V540.472H822.453L822.308 540.722L822.742 540.972ZM926.299 540.972L926.732 540.722L926.588 540.472H926.299V540.972ZM977.645 630.602L925.866 720.482L926.732 720.981L978.511 631.101L977.645 630.602ZM926.299 720.232H822.742V721.232H926.299V720.232ZM823.175 720.482L771.396 630.602L770.53 631.101L822.308 720.981L823.175 720.482ZM771.396 631.101L823.175 541.221L822.308 540.722L770.53 630.602L771.396 631.101ZM822.742 541.472H926.299V540.472H822.742V541.472ZM925.866 541.221L977.645 631.101L978.511 630.602L926.732 540.722L925.866 541.221Z" fill="#594956"/>
<path d="M978.078 451.093L978.511 451.343L978.655 451.093L978.511 450.843L978.078 451.093ZM926.299 540.973V541.473H926.588L926.732 541.223L926.299 540.973ZM822.742 540.973L822.308 541.223L822.453 541.473H822.742V540.973ZM770.963 451.093L770.53 450.843L770.386 451.093L770.53 451.343L770.963 451.093ZM822.742 361.213V360.713H822.453L822.308 360.963L822.742 361.213ZM926.299 361.213L926.732 360.963L926.588 360.713H926.299V361.213ZM977.645 450.843L925.866 540.723L926.732 541.223L978.511 451.343L977.645 450.843ZM926.299 540.473H822.742V541.473H926.299V540.473ZM823.175 540.723L771.396 450.843L770.53 451.343L822.308 541.223L823.175 540.723ZM771.396 451.343L823.175 361.462L822.308 360.963L770.53 450.843L771.396 451.343ZM822.742 361.713H926.299V360.713H822.742V361.713ZM925.866 361.462L977.645 451.343L978.511 450.843L926.732 360.963L925.866 361.462Z" fill="#594956"/>
<path d="M978.078 91.5734L978.511 91.823L978.655 91.5734L978.511 91.3238L978.078 91.5734ZM926.299 181.453V181.953H926.588L926.732 181.703L926.299 181.453ZM822.742 181.453L822.308 181.703L822.453 181.953H822.742V181.453ZM770.963 91.5734L770.53 91.3238L770.386 91.5734L770.53 91.823L770.963 91.5734ZM822.742 1.69336V1.19336H822.453L822.308 1.44377L822.742 1.69336ZM926.299 1.69336L926.732 1.44377L926.588 1.19336H926.299V1.69336ZM977.645 91.3238L925.866 181.204L926.732 181.703L978.511 91.823L977.645 91.3238ZM926.299 180.953H822.742V181.953H926.299V180.953ZM823.175 181.204L771.396 91.3238L770.53 91.823L822.308 181.703L823.175 181.204ZM771.396 91.823L823.175 1.94295L822.308 1.44377L770.53 91.3238L771.396 91.823ZM822.742 2.19336H926.299V1.19336H822.742V2.19336ZM925.866 1.94295L977.645 91.823L978.511 91.3238L926.732 1.44377L925.866 1.94295Z" fill="#594956"/>
<path d="M978.078 810.613L978.511 810.863L978.655 810.613L978.511 810.364L978.078 810.613ZM926.299 900.493V900.993H926.588L926.732 900.743L926.299 900.493ZM822.742 900.493L822.308 900.743L822.453 900.993H822.742V900.493ZM770.963 810.613L770.53 810.364L770.386 810.613L770.53 810.863L770.963 810.613ZM822.742 720.733V720.233H822.453L822.308 720.484L822.742 720.733ZM926.299 720.733L926.732 720.484L926.588 720.233H926.299V720.733ZM977.645 810.364L925.866 900.244L926.732 900.743L978.511 810.863L977.645 810.364ZM926.299 899.993H822.742V900.993H926.299V899.993ZM823.175 900.244L771.396 810.364L770.53 810.863L822.308 900.743L823.175 900.244ZM771.396 810.863L823.175 720.983L822.308 720.484L770.53 810.364L771.396 810.863ZM822.742 721.233H926.299V720.233H822.742V721.233ZM925.866 720.983L977.645 810.863L978.511 810.364L926.732 720.484L925.866 720.983Z" fill="#594956"/>
<path d="M253.176 271.333L253.609 271.583L253.753 271.333L253.609 271.084L253.176 271.333ZM201.398 361.213V361.713H201.687L201.831 361.463L201.398 361.213ZM97.8401 361.213L97.4069 361.463L97.5511 361.713H97.8401V361.213ZM46.0614 271.333L45.6282 271.084L45.4844 271.333L45.6282 271.583L46.0614 271.333ZM97.8401 181.453V180.953H97.5511L97.4069 181.204L97.8401 181.453ZM201.398 181.453L201.831 181.204L201.687 180.953H201.398V181.453ZM252.743 271.084L200.964 360.964L201.831 361.463L253.609 271.583L252.743 271.084ZM201.398 360.713H97.8401V361.713H201.398V360.713ZM98.2734 360.964L46.4947 271.084L45.6282 271.583L97.4069 361.463L98.2734 360.964ZM46.4947 271.583L98.2734 181.703L97.4069 181.204L45.6282 271.084L46.4947 271.583ZM97.8401 181.953H201.398V180.953H97.8401V181.953ZM200.964 181.703L252.743 271.583L253.609 271.084L201.831 181.204L200.964 181.703Z" fill="#594956"/>
<path d="M253.176 630.852L253.609 631.101L253.753 630.852L253.609 630.602L253.176 630.852ZM201.398 720.732V721.232H201.687L201.831 720.981L201.398 720.732ZM97.8401 720.732L97.4069 720.981L97.5511 721.232H97.8401V720.732ZM46.0614 630.852L45.6282 630.602L45.4844 630.852L45.6282 631.101L46.0614 630.852ZM97.8401 540.972V540.472H97.5511L97.4069 540.722L97.8401 540.972ZM201.398 540.972L201.831 540.722L201.687 540.472H201.398V540.972ZM252.743 630.602L200.964 720.482L201.831 720.981L253.609 631.101L252.743 630.602ZM201.398 720.232H97.8401V721.232H201.398V720.232ZM98.2734 720.482L46.4947 630.602L45.6282 631.101L97.4069 720.981L98.2734 720.482ZM46.4947 631.101L98.2734 541.221L97.4069 540.722L45.6282 630.602L46.4947 631.101ZM97.8401 541.472H201.398V540.472H97.8401V541.472ZM200.964 541.221L252.743 631.101L253.609 630.602L201.831 540.722L200.964 541.221Z" fill="#594956"/>
<path d="M253.176 451.093L253.609 451.343L253.753 451.093L253.609 450.843L253.176 451.093ZM201.398 540.973V541.473H201.687L201.831 541.223L201.398 540.973ZM97.8401 540.973L97.4069 541.223L97.5511 541.473H97.8401V540.973ZM46.0614 451.093L45.6282 450.843L45.4844 451.093L45.6282 451.343L46.0614 451.093ZM97.8401 361.213V360.713H97.5511L97.4069 360.963L97.8401 361.213ZM201.398 361.213L201.831 360.963L201.687 360.713H201.398V361.213ZM252.743 450.843L200.964 540.723L201.831 541.223L253.609 451.343L252.743 450.843ZM201.398 540.473H97.8401V541.473H201.398V540.473ZM98.2734 540.723L46.4947 450.843L45.6282 451.343L97.4069 541.223L98.2734 540.723ZM46.4947 451.343L98.2734 361.462L97.4069 360.963L45.6282 450.843L46.4947 451.343ZM97.8401 361.713H201.398V360.713H97.8401V361.713ZM200.964 361.462L252.743 451.343L253.609 450.843L201.831 360.963L200.964 361.462Z" fill="#594956"/>
<path d="M253.176 91.5734L253.609 91.823L253.753 91.5734L253.609 91.3238L253.176 91.5734ZM201.398 181.453V181.953H201.687L201.831 181.703L201.398 181.453ZM97.8401 181.453L97.4069 181.703L97.5511 181.953H97.8401V181.453ZM46.0614 91.5734L45.6282 91.3238L45.4844 91.5734L45.6282 91.823L46.0614 91.5734ZM97.8401 1.69336V1.19336H97.5511L97.4069 1.44377L97.8401 1.69336ZM201.398 1.69336L201.831 1.44377L201.687 1.19336H201.398V1.69336ZM252.743 91.3238L200.964 181.204L201.831 181.703L253.609 91.823L252.743 91.3238ZM201.398 180.953H97.8401V181.953H201.398V180.953ZM98.2734 181.204L46.4947 91.3238L45.6282 91.823L97.4069 181.703L98.2734 181.204ZM46.4947 91.823L98.2734 1.94295L97.4069 1.44377L45.6282 91.3238L46.4947 91.823ZM97.8401 2.19336H201.398V1.19336H97.8401V2.19336ZM200.964 1.94295L252.743 91.823L253.609 91.3238L201.831 1.44377L200.964 1.94295Z" fill="#594956"/>
<path d="M253.176 810.613L253.609 810.863L253.753 810.613L253.609 810.364L253.176 810.613ZM201.398 900.493V900.993H201.687L201.831 900.743L201.398 900.493ZM97.8401 900.493L97.4069 900.743L97.5511 900.993H97.8401V900.493ZM46.0614 810.613L45.6282 810.364L45.4844 810.613L45.6282 810.863L46.0614 810.613ZM97.8401 720.733V720.233H97.5511L97.4069 720.484L97.8401 720.733ZM201.398 720.733L201.831 720.484L201.687 720.233H201.398V720.733ZM252.743 810.364L200.964 900.244L201.831 900.743L253.609 810.863L252.743 810.364ZM201.398 899.993H97.8401V900.993H201.398V899.993ZM98.2734 900.244L46.4947 810.364L45.6282 810.863L97.4069 900.743L98.2734 900.244ZM46.4947 810.863L98.2734 720.983L97.4069 720.484L45.6282 810.364L46.4947 810.863ZM97.8401 721.233H201.398V720.233H97.8401V721.233ZM200.964 720.983L252.743 810.863L253.609 810.364L201.831 720.484L200.964 720.983Z" fill="#594956"/>
<path d="M-678.846 271.333L2324.33 271.333" stroke="#594956"/>
<path d="M-678.846 630.852L2324.33 630.851" stroke="#594956"/>
<path d="M-678.846 451.093L2324.33 451.093" stroke="#594956"/>
<path d="M-678.846 91.5732L2324.33 91.573" stroke="#594956"/>
<path d="M-678.846 810.612L2324.33 810.612" stroke="#594956"/>
<path d="M46.0614 1.69336V900.485" stroke="#594956"/>
<path d="M667.385 1.69336V900.485" stroke="#594956"/>
<path d="M1288.76 -3.39551V895.396" stroke="#594956"/>
<path d="M253.166 1.7002V900.492" stroke="#594956"/>
<path d="M874.49 1.69336V900.485" stroke="#594956"/>
<path d="M460.281 1.7002V900.492" stroke="#594956"/>
<path d="M1081.61 1.69336C1081.61 352.693 1081.61 549.485 1081.61 900.485" stroke="#594956"/>
<path d="M615.609 1.7002V900.492" stroke="#594956"/>
<path d="M1236.98 1.7002V900.492" stroke="#594956"/>
<path d="M201.39 1.7002V900.492" stroke="#594956"/>
<path d="M822.714 1.7002V900.492" stroke="#594956"/>
<path d="M408.505 1.7002V900.492" stroke="#594956"/>
<path d="M1029.83 1.7002V900.492" stroke="#594956"/>
<path d="M149.629 1.7002V900.492" stroke="#594956"/>
<path d="M770.953 1.7002V900.492" stroke="#594956"/>
<path d="M1392.32 1.7002V900.492" stroke="#594956"/>
<path d="M356.733 1.7002V900.492" stroke="#594956"/>
<path d="M978.057 1.7002V900.492" stroke="#594956"/>
<path d="M563.848 1.7002V900.492" stroke="#594956"/>
<path d="M1185.17 1.7002V900.492" stroke="#594956"/>
<path d="M97.8503 1.7002V900.492" stroke="#594956"/>
<path d="M719.174 1.7002V900.492" stroke="#594956"/>
<path d="M1340.54 1.7002V900.492" stroke="#594956"/>
<path d="M304.955 1.7002V900.492" stroke="#594956"/>
<path d="M926.279 1.7002V900.492" stroke="#594956"/>
<path d="M512.07 1.7002V900.492" stroke="#594956"/>
<path d="M1133.39 1.7002V900.492" stroke="#594956"/>
</g>
</svg>
