<svg width="1041" height="630" viewBox="0 0 1041 630" fill="none" xmlns="http://www.w3.org/2000/svg">
<g clip-path="url(#clip0_2_96)">
<rect opacity="0.7" width="1040.61" height="630" fill="url(#paint0_linear_2_96)"/>
<g opacity="0.5" filter="url(#filter0_f_2_96)">
<ellipse cx="518.769" cy="302.506" rx="310.662" ry="156.5" fill="#1B182D"/>
</g>
<g opacity="0.5">
<path opacity="0.3" d="M805.431 125.146H829.431V149.146" stroke="url(#paint1_linear_2_96)"/>
</g>
<g opacity="0.5">
<path opacity="0.3" d="M805.431 484.362H829.431V460.362" stroke="url(#paint2_linear_2_96)"/>
</g>
<g opacity="0.5">
<path opacity="0.3" d="M232.107 125.146H208.107V149.146" stroke="url(#paint3_linear_2_96)"/>
</g>
<g opacity="0.5">
<path opacity="0.3" d="M232.107 484.362H208.107V460.362" stroke="url(#paint4_linear_2_96)"/>
</g>
<path fill-rule="evenodd" clip-rule="evenodd" d="M361.278 299.081H300.557C299.898 299.081 299.486 298.368 299.815 297.797L329.213 246.879C329.824 245.82 330.955 245.167 332.178 245.167L390.922 245.167C391.581 245.167 391.993 245.88 391.663 246.451L361.278 299.081ZM382.82 250.704C383.01 250.594 382.932 250.304 382.713 250.304L334.156 250.304C333.544 250.304 332.979 250.631 332.673 251.16L308.374 293.248C308.264 293.437 308.477 293.65 308.666 293.54L382.82 250.704Z" fill="#F3F3F3"/>
<path fill-rule="evenodd" clip-rule="evenodd" d="M367.211 302.503L397.621 249.832C397.95 249.261 398.774 249.261 399.104 249.832L428.527 300.794C429.138 301.853 429.138 303.159 428.527 304.218L399.106 355.177C398.776 355.748 397.952 355.748 397.623 355.177L367.211 302.503ZM398.364 345.388C398.364 345.607 398.654 345.685 398.763 345.495L423.089 303.362C423.395 302.832 423.395 302.18 423.089 301.65L398.762 259.514C398.653 259.325 398.363 259.402 398.363 259.621L398.364 345.388Z" fill="#F3F3F3"/>
<path d="M390.925 359.845C391.585 359.845 391.997 359.131 391.667 358.561L361.281 305.931H300.557C299.898 305.931 299.486 306.644 299.815 307.215L329.213 358.133C329.824 359.192 330.955 359.845 332.178 359.845H390.925Z" fill="#F3F3F3"/>
<path d="M458.593 343.001V311.068H479.976V315.815H464.354V343.001H458.593ZM462.348 329.602V324.856H477.796V329.602H462.348Z" fill="white"/>
<path d="M497.073 343.411C494.181 343.411 491.657 342.829 489.499 341.664C487.342 340.498 485.659 338.708 484.45 336.291C483.257 333.875 482.66 330.789 482.66 327.035C482.66 323.28 483.257 320.195 484.45 317.778C485.659 315.362 487.342 313.571 489.499 312.406C491.657 311.241 494.181 310.658 497.073 310.658C499.978 310.658 502.51 311.241 504.668 312.406C506.825 313.571 508.501 315.369 509.695 317.8C510.889 320.217 511.486 323.295 511.486 327.035C511.486 330.775 510.889 333.86 509.695 336.291C508.501 338.708 506.818 340.498 504.646 341.664C502.488 342.829 499.964 343.411 497.073 343.411ZM497.073 338.686C498.828 338.686 500.338 338.305 501.604 337.543C502.87 336.78 503.84 335.557 504.517 333.875C505.207 332.177 505.552 329.94 505.552 327.164C505.552 324.302 505.207 322.007 504.517 320.281C503.826 318.555 502.848 317.311 501.582 316.549C500.316 315.772 498.813 315.383 497.073 315.383C495.347 315.383 493.843 315.765 492.563 316.527C491.297 317.275 490.319 318.498 489.629 320.195C488.938 321.878 488.593 324.115 488.593 326.905C488.593 329.782 488.938 332.084 489.629 333.81C490.319 335.536 491.297 336.78 492.563 337.543C493.829 338.305 495.332 338.686 497.073 338.686Z" fill="white"/>
<path d="M529.816 343.411C526.838 343.411 524.4 342.937 522.501 341.987C520.602 341.024 519.193 339.563 518.272 337.607C517.366 335.651 516.913 333.177 516.913 330.185V311.068H522.695V330.746C522.695 333.508 523.278 335.514 524.443 336.766C525.608 338.003 527.399 338.621 529.816 338.621C532.232 338.621 534.016 338.003 535.167 336.766C536.332 335.514 536.914 333.508 536.914 330.746V311.068H542.589V330.185C542.589 333.177 542.136 335.651 541.23 337.607C540.323 339.563 538.928 341.024 537.044 341.987C535.159 342.937 532.75 343.411 529.816 343.411Z" fill="white"/>
<path d="M549.144 343.001V311.068H554.969L571.216 335.967H570.138V311.068H575.575V343.001H569.749L553.502 318.102H554.581V343.001H549.144Z" fill="white"/>
<path d="M590.648 343.303C589.785 343.303 588.893 343.282 587.972 343.239C587.066 343.21 586.138 343.16 585.189 343.088C584.239 343.016 583.283 342.922 582.319 342.807V311.715C583.254 311.514 584.254 311.341 585.318 311.198C586.397 311.039 587.483 310.924 588.576 310.852C589.684 310.766 590.763 310.723 591.813 310.723C597.423 310.723 601.652 312.054 604.5 314.715C607.362 317.361 608.793 321.468 608.793 327.035C608.793 330.832 608.125 333.932 606.787 336.334C605.449 338.722 603.435 340.484 600.745 341.62C598.056 342.742 594.69 343.303 590.648 343.303ZM592.072 338.557C594.474 338.557 596.473 338.175 598.07 337.413C599.681 336.636 600.882 335.399 601.673 333.702C602.464 332.005 602.86 329.775 602.86 327.013C602.86 324.266 602.464 322.043 601.673 320.346C600.882 318.649 599.688 317.412 598.092 316.635C596.509 315.844 594.539 315.448 592.18 315.448C591.547 315.448 590.871 315.484 590.151 315.556C589.447 315.614 588.756 315.7 588.08 315.815V338.362C588.727 338.434 589.367 338.485 590 338.513C590.648 338.542 591.338 338.557 592.072 338.557Z" fill="white"/>
<path d="M610.942 343.001L621.666 311.068H630.016L640.739 343.001H635.022L625.463 313.636H626.132L616.595 343.001H610.942ZM617.717 333.831L618.969 329.192H627.323L628.823 333.831H617.717Z" fill="white"/>
<path d="M648.57 343.001V315.923H638.299V311.068H664.623V315.923H654.352V343.001H648.57Z" fill="white"/>
<path d="M668.487 343.001V311.068H674.248V343.001H668.487Z" fill="white"/>
<path d="M694.197 343.411C691.306 343.411 688.781 342.829 686.624 341.664C684.466 340.498 682.783 338.708 681.575 336.291C680.381 333.875 679.784 330.789 679.784 327.035C679.784 323.28 680.381 320.195 681.575 317.778C682.783 315.362 684.466 313.571 686.624 312.406C688.781 311.241 691.306 310.658 694.197 310.658C697.103 310.658 699.634 311.241 701.792 312.406C703.95 313.571 705.625 315.369 706.819 317.8C708.013 320.217 708.61 323.295 708.61 327.035C708.61 330.775 708.013 333.86 706.819 336.291C705.625 338.708 703.943 340.498 701.77 341.664C699.613 342.829 697.088 343.411 694.197 343.411ZM694.197 338.686C695.952 338.686 697.462 338.305 698.728 337.543C699.994 336.78 700.965 335.557 701.641 333.875C702.331 332.177 702.677 329.94 702.677 327.164C702.677 324.302 702.331 322.007 701.641 320.281C700.951 318.555 699.972 317.311 698.707 316.549C697.441 315.772 695.938 315.383 694.197 315.383C692.471 315.383 690.968 315.765 689.688 316.527C688.422 317.275 687.444 318.498 686.753 320.195C686.063 321.878 685.718 324.115 685.718 326.905C685.718 329.782 686.063 332.084 686.753 333.81C687.444 335.536 688.422 336.78 689.688 337.543C690.953 338.305 692.457 338.686 694.197 338.686Z" fill="white"/>
<path d="M714.188 343.001V311.068H720.014L736.261 335.967H735.182V311.068H740.62V343.001H734.794L718.547 318.102H719.626V343.001H714.188Z" fill="white"/>
<path d="M458.602 293.944V262.011H464.428L480.675 286.91H479.596V262.011H485.033V293.944H479.208L462.961 269.045H464.04V293.944H458.602Z" fill="white"/>
<path d="M505.004 294.354C502.113 294.354 499.588 293.771 497.431 292.606C495.273 291.441 493.59 289.65 492.382 287.233C491.188 284.817 490.591 281.731 490.591 277.977C490.591 274.223 491.188 271.137 492.382 268.721C493.59 266.304 495.273 264.513 497.431 263.348C499.588 262.183 502.113 261.601 505.004 261.601C507.91 261.601 510.441 262.183 512.599 263.348C514.757 264.513 516.432 266.311 517.626 268.742C518.82 271.159 519.417 274.237 519.417 277.977C519.417 281.717 518.82 284.803 517.626 287.233C516.432 289.65 514.749 291.441 512.577 292.606C510.42 293.771 507.895 294.354 505.004 294.354ZM505.004 289.628C506.759 289.628 508.269 289.247 509.535 288.485C510.801 287.723 511.772 286.5 512.448 284.817C513.138 283.12 513.484 280.883 513.484 278.107C513.484 275.244 513.138 272.95 512.448 271.224C511.758 269.498 510.779 268.253 509.514 267.491C508.248 266.714 506.745 266.326 505.004 266.326C503.278 266.326 501.775 266.707 500.495 267.469C499.229 268.217 498.251 269.44 497.56 271.137C496.87 272.82 496.525 275.057 496.525 277.848C496.525 280.725 496.87 283.026 497.56 284.752C498.251 286.478 499.229 287.723 500.495 288.485C501.76 289.247 503.264 289.628 505.004 289.628Z" fill="white"/>
<path d="M525.082 293.944V262.011H532.072L542.149 284.429H541.35L551.232 262.011H558.223V293.944H552.829V267.059H554.08L544.069 289.391H539.236L528.987 267.059H530.476V293.944H525.082Z" fill="white"/>
<path d="M565.04 293.944V262.011H570.801V293.944H565.04Z" fill="white"/>
<path d="M592.217 294.354C589.729 294.354 587.499 294.052 585.529 293.447C583.573 292.829 581.911 291.872 580.545 290.578C579.178 289.269 578.135 287.579 577.416 285.507C576.697 283.436 576.337 280.948 576.337 278.042C576.337 274.316 576.97 271.238 578.236 268.807C579.516 266.376 581.365 264.571 583.781 263.391C586.198 262.198 589.125 261.601 592.563 261.601C593.785 261.601 594.965 261.673 596.101 261.816C597.238 261.946 598.352 262.147 599.446 262.421V267.232C598.396 266.959 597.331 266.757 596.252 266.628C595.188 266.498 594.095 266.434 592.973 266.434C590.628 266.434 588.672 266.815 587.104 267.577C585.536 268.34 584.356 269.57 583.565 271.267C582.789 272.95 582.4 275.179 582.4 277.956C582.4 280.818 582.796 283.098 583.587 284.795C584.378 286.478 585.536 287.687 587.061 288.42C588.6 289.154 590.491 289.521 592.735 289.521C593.857 289.521 594.965 289.434 596.058 289.262C597.151 289.089 598.28 288.823 599.446 288.463V293.275C598.41 293.606 597.274 293.865 596.037 294.052C594.799 294.253 593.526 294.354 592.217 294.354Z" fill="white"/>
</g>
<defs>
<filter id="filter0_f_2_96" x="-27.8931" y="-89.9941" width="1093.32" height="785" filterUnits="userSpaceOnUse" color-interpolation-filters="sRGB">
<feFlood flood-opacity="0" result="BackgroundImageFix"/>
<feBlend mode="normal" in="SourceGraphic" in2="BackgroundImageFix" result="shape"/>
<feGaussianBlur stdDeviation="118" result="effect1_foregroundBlur_2_96"/>
</filter>
<linearGradient id="paint0_linear_2_96" x1="1038.08" y1="297.901" x2="12.2977" y2="273.956" gradientUnits="userSpaceOnUse">
<stop offset="0.00631338" stop-color="#07020D" stop-opacity="0"/>
<stop offset="0.0954551" stop-color="#07020D"/>
<stop offset="0.477823" stop-color="#07020D"/>
<stop offset="0.857575" stop-color="#07020D"/>
<stop offset="0.99727" stop-color="#07020D" stop-opacity="0"/>
</linearGradient>
<linearGradient id="paint1_linear_2_96" x1="817.431" y1="149.146" x2="817.431" y2="125.146" gradientUnits="userSpaceOnUse">
<stop stop-color="#F2F2F5"/>
<stop offset="1" stop-color="#D9D9E0"/>
</linearGradient>
<linearGradient id="paint2_linear_2_96" x1="817.431" y1="460.362" x2="817.431" y2="484.362" gradientUnits="userSpaceOnUse">
<stop stop-color="#F2F2F5"/>
<stop offset="1" stop-color="#D9D9E0"/>
</linearGradient>
<linearGradient id="paint3_linear_2_96" x1="220.107" y1="149.146" x2="220.107" y2="125.146" gradientUnits="userSpaceOnUse">
<stop stop-color="#F2F2F5"/>
<stop offset="1" stop-color="#D9D9E0"/>
</linearGradient>
<linearGradient id="paint4_linear_2_96" x1="220.107" y1="460.362" x2="220.107" y2="484.362" gradientUnits="userSpaceOnUse">
<stop stop-color="#F2F2F5"/>
<stop offset="1" stop-color="#D9D9E0"/>
</linearGradient>
<clipPath id="clip0_2_96">
<rect width="1041" height="630" fill="white"/>
</clipPath>
</defs>
</svg>
