<svg width="151" height="32" viewBox="0 0 151 32" fill="none" xmlns="http://www.w3.org/2000/svg">
<path d="M68.9303 24.5908V17.4576H60.9163V24.5908H58.1073V8.39844H60.9163V15.2047H68.9303V8.39844H71.7653V24.5908H68.9303Z" fill="white"/>
<path d="M85.7403 24.5938L85.1783 22.646C84.5643 23.6586 82.7513 24.7771 80.0453 24.7771C77.2353 24.7771 74.9883 23.5367 74.9883 20.8033C74.9883 18.4256 76.6993 17.3358 80.4273 16.9831L84.5403 16.5779C84.4633 14.6955 83.7733 13.6057 81.1403 13.6057C78.7133 13.6057 78.0503 14.5677 78.0503 16.1865L75.3893 16.2133C75.3893 13.5304 76.5133 11.4578 81.1103 11.4578C86.4473 11.4578 87.2163 13.7365 87.2163 17.2258V24.5888L85.7403 24.5938ZM84.5403 18.6227L80.8403 19.0279C78.5683 19.2825 77.8013 19.762 77.8013 20.7746C77.8013 21.9634 78.8233 22.647 80.7383 22.647C83.1383 22.647 84.5443 21.2808 84.5443 19.0289L84.5403 18.6227Z" fill="white"/>
<path d="M96.3133 13.8127C93.5813 13.8127 93.0393 15.3127 93.0393 17.4051V24.5908H90.3123V11.6361H91.7683L92.4133 13.4323C92.8223 12.5733 94.0723 11.4598 96.6263 11.4598H97.0613V13.8643C96.7973 13.8643 96.5433 13.8127 96.3133 13.8127Z" fill="white"/>
<path d="M109.441 24.5918L108.827 22.7441C108.367 23.6298 106.912 24.7701 103.817 24.7701C99.5013 24.7701 98.2233 21.6573 98.2233 18.1145C98.2233 14.5716 99.4493 11.4608 103.79 11.4608C106.37 11.4608 107.673 12.3712 108.235 13.2322V6.70331H110.917V24.5918H109.441ZM104.613 13.7345C101.626 13.7345 101.013 15.5059 101.013 18.1115C101.013 20.7171 101.627 22.54 104.589 22.54C107.628 22.54 108.266 20.7686 108.266 18.1115C108.266 15.6099 107.731 13.7374 104.614 13.7374L104.613 13.7345Z" fill="white"/>
<path d="M123.616 24.5918V17.3298C123.616 14.9006 123.207 13.7374 120.422 13.7374C117.665 13.7374 117.076 14.8758 117.076 17.3298L117.026 24.5918H114.345V6.70331H117.027V13.252C117.537 12.3217 118.686 11.4558 121.19 11.4558C125.455 11.4558 126.323 13.8603 126.323 17.5795V24.5869L123.616 24.5918Z" fill="white"/>
<path d="M139.758 24.5938L139.196 22.646C138.582 23.6586 136.769 24.7771 134.058 24.7771C131.248 24.7771 129.001 23.5367 129.001 20.8033C129.001 18.4256 130.712 17.3358 134.441 16.9831L138.552 16.5779C138.48 14.6955 137.791 13.6057 135.152 13.6057C132.727 13.6057 132.062 14.5677 132.062 16.1865L129.401 16.2133C129.401 13.5304 130.525 11.4578 135.122 11.4578C140.459 11.4578 141.228 13.7365 141.228 17.2258V24.5888L139.758 24.5938ZM138.558 18.6227L134.858 19.0279C132.586 19.2825 131.819 19.762 131.819 20.7746C131.819 21.9634 132.841 22.647 134.756 22.647C137.156 22.647 138.562 21.2808 138.562 19.0289L138.558 18.6227Z" fill="white"/>
<path d="M147.498 13.8127V20.8717C147.498 22.0863 148.008 22.6431 150.844 22.5172V24.6889C146.528 24.9415 144.715 23.929 144.715 20.8667V13.8127H142.848V12.1939L144.713 11.6371V8.39844H147.42V11.6371H150.842V13.8088L147.498 13.8127Z" fill="white"/>
<path d="M46.2293 28.5775V26.3583C46.2293 25.9461 45.5353 25.5528 44.2893 25.1981L44.3193 22.436C44.3194 18.181 42.9992 14.0289 40.5378 10.542C38.0763 7.05519 34.5925 4.40222 30.5583 2.94252L30.4693 2.3887C30.4233 2.09266 30.2936 1.81558 30.0952 1.58956C29.8968 1.36355 29.6379 1.19785 29.3483 1.11166C25.4806 -0.0132948 21.368 -0.0132948 17.5003 1.11166C17.21 1.19698 16.95 1.36218 16.7507 1.58807C16.5514 1.81395 16.4209 2.09125 16.3743 2.38771L16.2893 2.90388C12.2306 4.34982 8.72123 7.00163 6.24044 10.4972C3.75965 13.9928 2.42835 18.1618 2.42832 22.435V25.209C1.19932 25.5627 0.515316 25.9521 0.515316 26.3612V28.5805C0.495732 28.7104 0.524138 28.8431 0.595316 28.954C1.2067 28.5017 1.90879 28.1845 2.65432 28.0237C4.5542 27.5651 6.48533 27.2446 8.43232 27.0647C8.97819 27.0031 9.53103 27.0578 10.0539 27.2249C10.5768 27.3919 11.0576 27.6677 11.4643 28.0336C12.9685 29.3971 14.9335 30.1535 16.9723 30.1537H29.7723C31.8114 30.1538 33.7766 29.397 35.2803 28.0326C35.6862 27.6649 36.1666 27.3873 36.6895 27.2183C37.2124 27.0493 37.7657 26.9929 38.3123 27.0528C40.2589 27.2315 42.1897 27.5507 44.0893 28.0078C44.7958 28.1417 45.4629 28.4312 46.0413 28.8549C46.0743 28.8876 46.1133 28.9153 46.1413 28.946C46.2135 28.8373 46.2446 28.7068 46.2293 28.5775Z" fill="#FFF100"/>
<path d="M11.4943 23.9072C11.4783 23.398 11.4673 22.8878 11.4673 22.3736C11.4733 14.6588 13.2923 7.7396 16.2903 2.90784C12.2321 4.35338 8.72295 7.00452 6.24203 10.4994C3.76111 13.9942 2.42928 18.1624 2.42834 22.435V25.209C5.40461 24.5055 8.43894 24.0698 11.4943 23.9072Z" fill="url(#paint0_linear_1187_4456)"/>
<path d="M44.3174 22.435C44.3242 17.6189 42.6336 12.9515 39.5374 9.23856C40.8796 13.4877 41.5482 17.9174 41.5193 22.3696C41.5193 23.1216 41.4994 23.8646 41.4644 24.6017C42.4141 24.7479 43.3549 24.9463 44.2823 25.1961L44.3174 22.435Z" fill="url(#paint1_linear_1187_4456)"/>
<path d="M44.0893 28.0157C42.1894 27.5572 40.2583 27.2367 38.3113 27.0567C37.7651 26.996 37.2121 27.0515 36.6892 27.2195C36.1664 27.3874 35.6857 27.6639 35.2793 28.0306C33.7754 29.3946 31.8103 30.1511 29.7713 30.1507H16.9763C14.9383 30.1503 12.9741 29.3944 11.4703 28.0316C11.0647 27.6634 10.5844 27.3853 10.0614 27.216C9.53853 27.0466 8.98513 26.99 8.43832 27.0498C6.49136 27.2294 4.56023 27.5496 2.66032 28.0078C1.91547 28.1707 1.2138 28.4877 0.601318 28.9381C1.57232 30.4113 11.4013 31.9578 23.3773 31.9578C35.3533 31.9578 45.1773 30.4063 46.1513 28.9391C46.1173 28.9094 46.0793 28.8806 46.0513 28.8489C45.4657 28.434 44.7964 28.1498 44.0893 28.0157Z" fill="url(#paint2_radial_1187_4456)"/>
<path d="M23.3703 6.78354L18.4703 15.0541L23.3703 18.0689V6.78651V6.78354Z" fill="#0A0A0A"/>
<path d="M23.3723 6.78653V18.0669L28.2723 15.0561L23.3723 6.78653Z" fill="#4B4D4D"/>
<path d="M23.3723 19.7056V23.6387C23.4643 23.508 28.2723 16.6898 28.2723 16.6868L23.3723 19.7056Z" fill="#4B4D4D"/>
<path d="M23.3723 19.7066L18.4723 16.6928L23.3723 23.6417V19.7046V19.7066Z" fill="#0A0A0A"/>
<defs>
<linearGradient id="paint0_linear_1187_4456" x1="9.35934" y1="25.209" x2="9.35934" y2="2.90784" gradientUnits="userSpaceOnUse">
<stop stop-color="#EDCF00"/>
<stop offset="0.33" stop-color="#F0D500"/>
<stop offset="0.77" stop-color="#F9E500"/>
<stop offset="1" stop-color="#FFF100"/>
</linearGradient>
<linearGradient id="paint1_linear_1187_4456" x1="41.9274" y1="25.3717" x2="41.9274" y2="9.23856" gradientUnits="userSpaceOnUse">
<stop stop-color="#EDCF00"/>
<stop offset="0.59" stop-color="#F7E100"/>
<stop offset="1" stop-color="#FFF100"/>
</linearGradient>
<radialGradient id="paint2_radial_1187_4456" cx="0" cy="0" r="1" gradientUnits="userSpaceOnUse" gradientTransform="translate(3.07095 40.4443) scale(16.995 16.8793)">
<stop stop-color="#FFF100"/>
<stop offset="0.23" stop-color="#F9E500"/>
<stop offset="0.67" stop-color="#F0D500"/>
<stop offset="1" stop-color="#EDCF00"/>
</radialGradient>
</defs>
</svg>
