<svg width="204" height="54" viewBox="0 0 204 54" fill="none" xmlns="http://www.w3.org/2000/svg">
<path fill-rule="evenodd" clip-rule="evenodd" d="M28.5008 25.0281H0.444976C0.140438 25.0281 -0.0498977 24.6984 0.102372 24.4347L13.6853 0.908402C13.9679 0.418797 14.4903 0.117188 15.0557 0.117188L42.1979 0.117188C42.5024 0.117188 42.6928 0.44686 42.5405 0.710598L28.5008 25.0281ZM38.4546 2.67537C38.5422 2.62476 38.5063 2.49083 38.4051 2.49083L15.9693 2.49083C15.6866 2.49083 15.4254 2.64163 15.2841 2.88644L4.0568 22.3327C4.0062 22.4203 4.10429 22.5184 4.19192 22.4678L38.4546 2.67537Z" fill="#F3F3F3"/>
<path fill-rule="evenodd" clip-rule="evenodd" d="M31.2425 26.6091L45.2931 2.27263C45.4454 2.0089 45.826 2.00889 45.9783 2.27263L59.573 25.8192C59.8556 26.3089 59.8556 26.9121 59.573 27.4017L45.9791 50.9469C45.8269 51.2106 45.4462 51.2106 45.2939 50.9469L31.2425 26.6091ZM45.6364 46.4241C45.6364 46.5252 45.7704 46.5611 45.821 46.4735L57.0605 27.0061C57.2019 26.7613 57.2019 26.4597 57.0605 26.2149L45.8204 6.74631C45.7698 6.65868 45.6358 6.69457 45.6358 6.79576L45.6364 46.4241Z" fill="#F3F3F3"/>
<path d="M42.1995 53.1037C42.504 53.1037 42.6944 52.7741 42.5421 52.5103L28.5024 28.1929H0.445008C0.14047 28.1929 -0.0498662 28.5226 0.102403 28.7863L13.6853 52.3125C13.9679 52.8021 14.4903 53.1037 15.0557 53.1037H42.1995Z" fill="#F3F3F3"/>
<path d="M73.4668 45.3212V30.5666H83.3464V32.7599H76.1286V45.3212H73.4668ZM75.2015 39.1303V36.937H82.3395V39.1303H75.2015Z" fill="white"/>
<path d="M91.246 45.5106C89.9101 45.5106 88.7437 45.2415 87.7468 44.7031C86.7498 44.1648 85.9722 43.3373 85.4139 42.2208C84.8623 41.1042 84.5865 39.6786 84.5865 37.9439C84.5865 36.2093 84.8623 34.7836 85.4139 33.6671C85.9722 32.5505 86.7498 31.7231 87.7468 31.1847C88.7437 30.6464 89.9101 30.3772 91.246 30.3772C92.5885 30.3772 93.7583 30.6464 94.7552 31.1847C95.7521 31.7231 96.5264 32.5538 97.078 33.677C97.6297 34.7936 97.9055 36.2159 97.9055 37.9439C97.9055 39.6719 97.6297 41.0975 97.078 42.2208C96.5264 43.3373 95.7488 44.1648 94.7452 44.7031C93.7483 45.2415 92.5819 45.5106 91.246 45.5106ZM91.246 43.3273C92.0568 43.3273 92.7547 43.1512 93.3395 42.799C93.9244 42.4467 94.373 41.8818 94.6854 41.1042C95.0044 40.3199 95.1639 39.2864 95.1639 38.0037C95.1639 36.6811 95.0044 35.6211 94.6854 34.8235C94.3664 34.026 93.9144 33.4511 93.3296 33.0988C92.7447 32.7399 92.0502 32.5605 91.246 32.5605C90.4484 32.5605 89.7539 32.7366 89.1624 33.0889C88.5775 33.4345 88.1256 33.9994 87.8066 34.7836C87.4876 35.5612 87.328 36.5947 87.328 37.8841C87.328 39.2133 87.4876 40.2767 87.8066 41.0743C88.1256 41.8718 88.5775 42.4467 89.1624 42.799C89.7473 43.1512 90.4418 43.3273 91.246 43.3273Z" fill="white"/>
<path d="M106.375 45.5106C104.999 45.5106 103.872 45.2913 102.995 44.8527C102.118 44.4074 101.467 43.7328 101.041 42.8289C100.622 41.925 100.413 40.7818 100.413 39.3994V30.5666H103.085V39.6586C103.085 40.9347 103.354 41.8619 103.892 42.4401C104.431 43.0117 105.258 43.2974 106.375 43.2974C107.491 43.2974 108.315 43.0117 108.847 42.4401C109.385 41.8619 109.655 40.9347 109.655 39.6586V30.5666H112.277V39.3994C112.277 40.7818 112.067 41.925 111.649 42.8289C111.23 43.7328 110.585 44.4074 109.714 44.8527C108.844 45.2913 107.731 45.5106 106.375 45.5106Z" fill="white"/>
<path d="M115.305 45.3212V30.5666H117.997L125.504 42.0712H125.005V30.5666H127.518V45.3212H124.826L117.319 33.8166H117.817V45.3212H115.305Z" fill="white"/>
<path d="M134.482 45.4608C134.083 45.4608 133.671 45.4508 133.246 45.4309C132.827 45.4176 132.398 45.3943 131.96 45.3611C131.521 45.3279 131.079 45.2847 130.634 45.2315V30.8657C131.066 30.7726 131.528 30.6929 132.02 30.6264C132.518 30.5533 133.02 30.5002 133.525 30.4669C134.037 30.427 134.535 30.4071 135.02 30.4071C137.612 30.4071 139.566 31.0219 140.882 32.2514C142.205 33.4743 142.866 35.3718 142.866 37.9439C142.866 39.6985 142.557 41.1308 141.939 42.2407C141.321 43.344 140.39 44.1581 139.148 44.6832C137.905 45.2016 136.35 45.4608 134.482 45.4608ZM135.14 43.2675C136.25 43.2675 137.174 43.0914 137.911 42.7392C138.656 42.3803 139.211 41.8087 139.576 41.0244C139.942 40.2402 140.125 39.21 140.125 37.9339C140.125 36.6645 139.942 35.6377 139.576 34.8534C139.211 34.0692 138.659 33.4976 137.921 33.1387C137.19 32.7732 136.28 32.5904 135.19 32.5904C134.897 32.5904 134.585 32.607 134.253 32.6402C133.927 32.6668 133.608 32.7067 133.296 32.7599V43.1778C133.595 43.211 133.89 43.2343 134.183 43.2476C134.482 43.2609 134.801 43.2675 135.14 43.2675Z" fill="white"/>
<path d="M143.859 45.3212L148.814 30.5666H152.672L157.627 45.3212H154.985L150.568 31.753H150.877L146.471 45.3212H143.859ZM146.989 41.0843L147.568 38.9408H151.428L152.121 41.0843H146.989Z" fill="white"/>
<path d="M161.245 45.3212V32.8097H156.499V30.5666H168.662V32.8097H163.916V45.3212H161.245Z" fill="white"/>
<path d="M170.447 45.3212V30.5666H173.109V45.3212H170.447Z" fill="white"/>
<path d="M182.327 45.5106C180.991 45.5106 179.824 45.2415 178.827 44.7031C177.83 44.1648 177.053 43.3373 176.495 42.2208C175.943 41.1042 175.667 39.6786 175.667 37.9439C175.667 36.2093 175.943 34.7836 176.495 33.6671C177.053 32.5505 177.83 31.7231 178.827 31.1847C179.824 30.6464 180.991 30.3772 182.327 30.3772C183.669 30.3772 184.839 30.6464 185.836 31.1847C186.833 31.7231 187.607 32.5538 188.159 33.677C188.71 34.7936 188.986 36.2159 188.986 37.9439C188.986 39.6719 188.71 41.0975 188.159 42.2208C187.607 43.3373 186.829 44.1648 185.826 44.7031C184.829 45.2415 183.663 45.5106 182.327 45.5106ZM182.327 43.3273C183.137 43.3273 183.835 43.1512 184.42 42.799C185.005 42.4467 185.454 41.8818 185.766 41.1042C186.085 40.3199 186.245 39.2864 186.245 38.0037C186.245 36.6811 186.085 35.6211 185.766 34.8235C185.447 34.026 184.995 33.4511 184.41 33.0988C183.825 32.7399 183.131 32.5605 182.327 32.5605C181.529 32.5605 180.835 32.7366 180.243 33.0889C179.658 33.4345 179.206 33.9994 178.887 34.7836C178.568 35.5612 178.409 36.5947 178.409 37.8841C178.409 39.2133 178.568 40.2767 178.887 41.0743C179.206 41.8718 179.658 42.4467 180.243 42.799C180.828 43.1512 181.522 43.3273 182.327 43.3273Z" fill="white"/>
<path d="M191.564 45.3212V30.5666H194.255L201.762 42.0712H201.264V30.5666H203.776V45.3212H201.084L193.577 33.8166H194.076V45.3212H191.564Z" fill="white"/>
<path d="M73.4707 22.6542V7.89962H76.1624L83.6693 19.4042H83.1709V7.89962H85.6831V22.6542H82.9914L75.4845 11.1496H75.983V22.6542H73.4707Z" fill="white"/>
<path d="M94.9105 22.8436C93.5746 22.8436 92.4082 22.5745 91.4113 22.0361C90.4143 21.4978 89.6367 20.6703 89.0785 19.5538C88.5268 18.4372 88.251 17.0116 88.251 15.2769C88.251 13.5423 88.5268 12.1166 89.0785 11.0001C89.6367 9.88352 90.4143 9.05606 91.4113 8.51772C92.4082 7.97938 93.5746 7.71021 94.9105 7.71021C96.253 7.71021 97.4228 7.97938 98.4197 8.51772C99.4166 9.05606 100.191 9.88684 100.743 11.01C101.294 12.1266 101.57 13.5489 101.57 15.2769C101.57 17.0049 101.294 18.4305 100.743 19.5538C100.191 20.6703 99.4133 21.4978 98.4097 22.0361C97.4128 22.5745 96.2464 22.8436 94.9105 22.8436ZM94.9105 20.6604C95.7213 20.6604 96.4192 20.4842 97.0041 20.132C97.5889 19.7797 98.0375 19.2148 98.3499 18.4372C98.6689 17.6529 98.8284 16.6195 98.8284 15.3367C98.8284 14.0141 98.6689 12.9541 98.3499 12.1565C98.0309 11.359 97.579 10.7841 96.9941 10.4318C96.4092 10.0729 95.7147 9.89349 94.9105 9.89349C94.113 9.89349 93.4184 10.0696 92.8269 10.4219C92.242 10.7675 91.7901 11.3324 91.4711 12.1166C91.1521 12.8943 90.9926 13.9277 90.9926 15.2171C90.9926 16.5463 91.1521 17.6097 91.4711 18.4073C91.7901 19.2048 92.242 19.7797 92.8269 20.132C93.4118 20.4842 94.1063 20.6604 94.9105 20.6604Z" fill="white"/>
<path d="M104.187 22.6542V7.89962H107.417L112.073 18.2577H111.704L116.27 7.89962H119.5V22.6542H117.008V10.2324H117.586L112.96 20.5507H110.727L105.992 10.2324H106.68V22.6542H104.187Z" fill="white"/>
<path d="M122.65 22.6542V7.89962H125.312V22.6542H122.65Z" fill="white"/>
<path d="M135.207 22.8436C134.057 22.8436 133.027 22.7041 132.117 22.4249C131.213 22.1391 130.445 21.6972 129.814 21.099C129.182 20.4942 128.7 19.7133 128.368 18.7562C128.036 17.7992 127.87 16.6494 127.87 15.3068C127.87 13.5855 128.162 12.1632 128.747 11.04C129.339 9.91675 130.193 9.08265 131.309 8.53766C132.426 7.98602 133.778 7.71021 135.367 7.71021C135.932 7.71021 136.477 7.74344 137.002 7.8099C137.527 7.86971 138.042 7.96276 138.547 8.08904V10.3122C138.062 10.1859 137.57 10.0929 137.071 10.0331C136.58 9.97324 136.074 9.94333 135.556 9.94333C134.473 9.94333 133.569 10.1195 132.844 10.4717C132.12 10.824 131.575 11.3922 131.209 12.1765C130.851 12.9541 130.671 13.9842 130.671 15.267C130.671 16.5895 130.854 17.643 131.219 18.4272C131.585 19.2048 132.12 19.7631 132.824 20.1021C133.536 20.441 134.41 20.6105 135.446 20.6105C135.965 20.6105 136.477 20.5706 136.982 20.4909C137.487 20.4111 138.008 20.2882 138.547 20.122V22.3452C138.068 22.498 137.543 22.6177 136.972 22.7041C136.4 22.7971 135.812 22.8436 135.207 22.8436Z" fill="white"/>
</svg>
