<svg width="51" height="51" viewBox="0 0 51 51" fill="none" xmlns="http://www.w3.org/2000/svg">
<g opacity="0.99709">
<path d="M36.5759 17.5765C37.7512 17.4554 38.9265 17.1526 40.1018 16.6683C39.255 17.855 38.2314 18.8661 37.0308 19.7016C37.0435 19.8711 37.0498 20.1254 37.0498 20.4644C37.0498 22.0386 36.8097 23.6097 36.3294 25.1778C35.8492 26.7459 35.1194 28.2504 34.14 29.6914C33.1606 31.1324 31.9948 32.4068 30.6425 33.5148C29.2903 34.6227 27.6601 35.5067 25.7518 36.1666C23.8435 36.8266 21.8026 37.1565 19.6289 37.1565C16.2041 37.1565 13.07 36.2787 10.2266 34.5229C10.6689 34.5713 11.1617 34.5955 11.7052 34.5955C14.5486 34.5955 17.0824 33.76 19.3067 32.089C17.9797 32.0647 16.7918 31.6742 15.7429 30.9174C14.6939 30.1606 13.9736 29.1949 13.5818 28.0204C13.9989 28.0809 14.3843 28.1112 14.7382 28.1112C15.2816 28.1112 15.8187 28.0446 16.3495 27.9114C14.934 27.6329 13.7619 26.9578 12.833 25.8862C11.9042 24.8145 11.4398 23.5703 11.4398 22.1536V22.081C12.2991 22.5411 13.2216 22.7893 14.2074 22.8257C13.3733 22.2929 12.7098 21.5966 12.217 20.7369C11.7241 19.8771 11.4777 18.9448 11.4777 17.9397C11.4777 16.8741 11.7557 15.8873 12.3117 14.9791C13.8409 16.7833 15.7018 18.2273 17.8944 19.3111C20.087 20.3948 22.4344 20.9972 24.9367 21.1183C24.8356 20.6582 24.785 20.2101 24.785 19.7742C24.785 18.1516 25.3821 16.7682 26.5764 15.6239C27.7706 14.4796 29.2145 13.9075 30.9079 13.9075C32.6772 13.9075 34.1684 14.525 35.3816 15.7601C36.7591 15.5058 38.0545 15.0336 39.2677 14.3434C38.8001 15.7359 37.9028 16.8136 36.5759 17.5765Z" fill="#F3F3F3"/>
</g>
</svg>
